SplineFontDB: 3.0
FontName: Parastoo
FullName: Parastoo
FamilyName: Parastoo
Weight: Regular
Copyright: Copyright (c) 2016 by Saber Rastikerdar. All Rights Reserved.\nBased on DejaVu font.\nNon-Arabic(Latin) glyphs and data are imported from Lora font under the Open Font License.
Version: 2.0.0
ItalicAngle: 0
UnderlinePosition: -500
UnderlineWidth: 100
Ascent: 1638
Descent: 410
InvalidEm: 0
LayerCount: 2
Layer: 0 0 "Back" 1
Layer: 1 0 "Fore" 0
PreferredKerning: 4
XUID: [1021 502 1027637223 2434644]
UniqueID: 4129852
UseUniqueID: 1
FSType: 0
OS2Version: 1
OS2_WeightWidthSlopeOnly: 0
OS2_UseTypoMetrics: 1
CreationTime: 1431850356
ModificationTime: 1573730575
PfmFamily: 17
TTFWeight: 400
TTFWidth: 5
LineGap: 0
VLineGap: 0
Panose: 2 11 6 3 3 8 4 2 2 4
OS2TypoAscent: 2350
OS2TypoAOffset: 0
OS2TypoDescent: -1200
OS2TypoDOffset: 0
OS2TypoLinegap: 0
OS2WinAscent: 2350
OS2WinAOffset: 0
OS2WinDescent: 1200
OS2WinDOffset: 0
HheadAscent: 2350
HheadAOffset: 0
HheadDescent: -1200
HheadDOffset: 0
OS2SubXSize: 1331
OS2SubYSize: 1433
OS2SubXOff: 0
OS2SubYOff: 286
OS2SupXSize: 1331
OS2SupYSize: 1433
OS2SupXOff: 0
OS2SupYOff: 983
OS2StrikeYSize: 102
OS2StrikeYPos: 530
OS2CapHeight: 1638
OS2XHeight: 1082
OS2Vendor: '    '
OS2CodePages: 00000041.20080000
OS2UnicodeRanges: 80002003.80000000.00000008.00000000
Lookup: 1 9 0 "Single Substitution 1" { "Single Substitution 1 subtable"  } []
Lookup: 1 9 0 "'fina' Terminal Forms in Arabic lookup 9" { "'fina' Terminal Forms in Arabic lookup 9 subtable"  } ['fina' ('DFLT' <'dflt' > 'arab' <'FAR ' 'KUR ' 'URD ' 'dflt' > ) ]
Lookup: 1 9 0 "'medi' Medial Forms in Arabic lookup 11" { "'medi' Medial Forms in Arabic lookup 11 subtable"  } ['medi' ('DFLT' <'dflt' > 'arab' <'FAR ' 'KUR ' 'URD ' 'dflt' > ) ]
Lookup: 1 9 0 "'init' Initial Forms in Arabic lookup 13" { "'init' Initial Forms in Arabic lookup 13 subtable"  } ['init' ('DFLT' <'dflt' > 'arab' <'FAR ' 'KUR ' 'URD ' 'dflt' > ) ]

StartChar: exclam
Encoding: 33 33 1
GlifName: exclam
Width: 585
VWidth: -1
GlyphClass: 2
Flags: HW
LayerCount: 2
Fore
SplineSet
427.485351562 134.7734375 m 128
 427.485351562 60.9965407422 366.421689427 1.052734375 292.711914062 1.052734375 c 128
 220.849184312 1.052734375 157.911439058 61.1582428714 157.911439058 133.027057817 c 0
 157.911439058 207.450036537 218.164696523 267.44140625 292.711914062 267.44140625 c 128
 366.580153314 267.44140625 427.485351562 208.615049414 427.485351562 134.7734375 c 128
306.19921875 1525.49316406 m 2
 372.896600876 1525.49316406 393.443425448 1439.71290935 393.443425448 1330.9604622 c 0
 393.443425448 1297.6127046 391.511457539 1262.10492766 388.385742188 1226.24804688 c 2
 329 515 l 6
 328.344726562 507.134765625 313.46484375 503.444335938 298.220703125 503.444335938 c 4
 282.208007812 503.444335938 265.79296875 507.516601562 265.038085938 515.098632812 c 6
 197.266601562 1226.0546875 l 2
 193.358923882 1265.31835128 190.778031891 1304.79021116 190.778031891 1341.60531471 c 0
 190.778031891 1443.78142489 210.658037725 1525.49316406 277.228515625 1525.49316406 c 2
 306.19921875 1525.49316406 l 2
EndSplineSet
EndChar

StartChar: period
Encoding: 46 46 2
GlifName: period
Width: 586
VWidth: 3440
GlyphClass: 2
Flags: HW
LayerCount: 2
Fore
SplineSet
427.485351562 134.7734375 m 128
 427.485351562 60.9965407422 366.421689427 1.052734375 292.711914062 1.052734375 c 128
 220.849184312 1.052734375 157.911439058 61.1582428714 157.911439058 133.027057817 c 0
 157.911439058 207.450036537 218.164696523 267.44140625 292.711914062 267.44140625 c 128
 366.580153314 267.44140625 427.485351562 208.615049414 427.485351562 134.7734375 c 128
EndSplineSet
EndChar

StartChar: colon
Encoding: 58 58 3
GlifName: colon
Width: 585
VWidth: 3440
GlyphClass: 2
Flags: HW
LayerCount: 2
Fore
SplineSet
427.485351562 720.814453125 m 132
 427.485351562 647.037109375 366.421875 587.09375 292.711914062 587.09375 c 132
 220.849609375 587.09375 157.911132812 647.198242188 157.911132812 719.067382812 c 4
 157.911132812 793.491210938 218.1640625 853.482421875 292.711914062 853.482421875 c 132
 366.579101562 853.482421875 427.485351562 794.65625 427.485351562 720.814453125 c 132
427.485351562 134.7734375 m 128
 427.485351562 60.9965407422 366.421689427 1.052734375 292.711914062 1.052734375 c 128
 220.849184312 1.052734375 157.911439058 61.1582428714 157.911439058 133.027057817 c 0
 157.911439058 207.450036537 218.164696523 267.44140625 292.711914062 267.44140625 c 128
 366.580153314 267.44140625 427.485351562 208.615049414 427.485351562 134.7734375 c 128
EndSplineSet
EndChar

StartChar: uni060C
Encoding: 1548 1548 5
GlifName: afii57388
Width: 586
VWidth: 3440
GlyphClass: 2
Flags: HW
LayerCount: 2
Fore
SplineSet
301.526367188 -0.025390625 m 4
 201.912109375 -0.025390625 154.379882812 74.7080078125 154.379882812 164.176757812 c 4
 154.379882812 277.775390625 196.245117188 496.203125 380.387695312 606.797851562 c 4
 423.060546875 632.470703125 455.522460938 598.712890625 427.23046875 576.154296875 c 4
 349.686523438 519.420898438 287.384765625 413.02734375 284.091796875 278.494140625 c 5
 380.446289062 277.524414062 431.485351562 226.908203125 431.485351562 131.805664062 c 4
 431.485351562 67.865234375 381.086914062 -0.025390625 301.526367188 -0.025390625 c 4
EndSplineSet
EndChar

StartChar: uni0615
Encoding: 1557 1557 6
GlifName: uni0615
Width: 0
VWidth: 3489
GlyphClass: 4
Flags: HW
AnchorPoint: "Anchor-10" 767.271 2009.75 mark 0
AnchorPoint: "Anchor-9" 767.271 2009.75 mark 0
AnchorPoint: "Anchor-1" 591.271 2889.22 basemark 0
AnchorPoint: "Anchor-1" 767.271 2009.75 mark 0
LayerCount: 2
Fore
SplineSet
1091.14949843 2284.18453755 m 0
 1091.14949843 2356.8466697 1041.60773589 2395.13459327 977.52489204 2395.13459327 c 0
 880.390330818 2395.13459327 784.560598678 2311.06675838 674.393554688 2149.61425781 c 1
 790.056640625 2149.61425781 l 2
 934.305355258 2149.99213972 1091.14949843 2171.58663025 1091.14949843 2284.18453755 c 0
1001.97120738 2512.26824912 m 0
 1104.73887039 2512.26824912 1178.06916692 2448.759704 1178.06916692 2342.52310798 c 0
 1178.06916692 2138.12986302 961.625324779 2050.07680402 739.424804688 2049.91210938 c 2
 479.942382812 2049.71972656 l 1
 420.115234375 2106.77148438 l 2
 406.163247533 2120.11195809 399.187254112 2130.33694303 399.187254112 2137.44643922 c 0
 399.187254112 2145.55831828 408.269041804 2149.61425781 426.432617188 2149.61425781 c 2
 566.337890625 2149.61425781 l 1
 534.750976562 2729.23339844 l 1
 625.635742188 2781.87988281 l 1
 625.635742188 2156.38378906 l 1
 750.046277381 2393.64014551 875.491432444 2512.26824912 1001.97120738 2512.26824912 c 0
EndSplineSet
EndChar

StartChar: uni061B
Encoding: 1563 1563 7
GlifName: uni061B_
Width: 595
VWidth: 3440
GlyphClass: 2
Flags: HW
LayerCount: 2
Fore
SplineSet
305.526367188 489.974609375 m 0
 205.912109375 489.974609375 158.379882812 564.708007812 158.379882812 654.176757812 c 0
 158.379882812 767.775390625 200.245117188 986.203125 384.387695312 1096.79785156 c 0
 427.060546875 1122.47070312 459.522460938 1088.71289062 431.23046875 1066.15429688 c 0
 353.686523438 1009.42089844 291.384765625 903.02734375 288.091796875 768.494140625 c 1
 384.446289062 767.524414062 435.485351562 716.908203125 435.485351562 621.805664062 c 0
 435.485351562 557.865234375 385.086914062 489.974609375 305.526367188 489.974609375 c 0
433.802734375 134.7734375 m 128
 433.802734375 60.9955083316 372.739327316 1.052734375 299.029296875 1.052734375 c 128
 227.166567125 1.052734375 164.228821871 61.1582428714 164.228821871 133.027057817 c 0
 164.228821871 207.450036538 224.482079335 267.44140625 299.029296875 267.44140625 c 128
 372.897778865 267.44140625 433.802734375 208.616080964 433.802734375 134.7734375 c 128
EndSplineSet
EndChar

StartChar: uni061F
Encoding: 1567 1567 8
GlifName: uni061F_
Width: 822
VWidth: 3431
GlyphClass: 2
Flags: HW
LayerCount: 2
Fore
SplineSet
570 135 m 128
 570 61 509 1 435 1 c 128
 363 1 300 61 300 133 c 0
 300 207 360 267 435 267 c 128
 509 267 570 209 570 135 c 128
447 1345 m 0
 334 1345 249 1267 249 1142 c 0
 249 974 521 896 521 638 c 0
 521 567 476 503 423 488 c 0
 406 483 397 476 390 500 c 2
 376 558 l 2
 370 579 379 577 392 581 c 0
 423 590 429 618 429 634 c 0
 429 826 90 871 90 1173 c 0
 90 1376 229 1514 428 1514 c 0
 625 1514 732 1378 732 1201 c 0
 732 1101 695 1017 641 963 c 1
 590 993 l 1
 618 1042 632 1085 632 1121 c 0
 632 1249 561 1345 447 1345 c 0
EndSplineSet
EndChar

StartChar: uni0621
Encoding: 1569 1569 9
GlifName: uni0621
Width: 827
VWidth: 3798
GlyphClass: 2
Flags: HW
AnchorPoint: "Anchor-7" 418.36 -48.8262 basechar 0
AnchorPoint: "Anchor-10" 409.878 1057.02 basechar 0
LayerCount: 2
Fore
SplineSet
650 532 m 5
 569 571 516 589 450 589 c 4
 307 589 242 489 242 443 c 4
 242 367 329 319 416 319 c 5
 416 319 656 365 698 365 c 4
 711 365 717 360 717 350 c 4
 717 340 711 324 698 304 c 6
 617 173 l 5
 441 163 272 110 110 15 c 5
 150 202 l 5
 158 205 189 219 244 241 c 5
 179 307 146 371 146 432 c 4
 146 598 287 757 432 757 c 4
 556 757 637 700 684 578 c 5
 650 532 l 5
EndSplineSet
EndChar

StartChar: uni0627
Encoding: 1575 1575 15
GlifName: uni0627
Width: 464
VWidth: 3764
GlyphClass: 2
Flags: HW
AnchorPoint: "Anchor-10" 206.76 1624.01 basechar 0
AnchorPoint: "Anchor-7" 231.215 -230.841 basechar 0
LayerCount: 2
Fore
SplineSet
285 1486 m 0
 291.284179688 1381.12304688 304 999 304 187 c 0
 304 93 269 28 202 -6 c 1
 202 174.889635084 182.655352919 949.333417777 128 1389 c 1
 243 1512 l 2
 269.077148438 1538.515625 282.104492188 1534.32226562 285 1486 c 0
EndSplineSet
Substitution2: "'fina' Terminal Forms in Arabic lookup 9 subtable" uniFE8E
EndChar

StartChar: uni062D
Encoding: 1581 1581 21
GlifName: uni062D_
Width: 1318
VWidth: 3798
GlyphClass: 2
Flags: HW
AnchorPoint: "Anchor-7" 639.792 -826.821 basechar 0
AnchorPoint: "Anchor-10" 597.798 1120.94 basechar 0
LayerCount: 2
Fore
SplineSet
202 -152 m 4
 202 -395.1640625 494.240234375 -453 762 -453 c 4
 905 -453 1057 -438 1192 -422 c 5
 1192 -423 1193 -424 1193 -425 c 4
 1193 -429 1190 -436 1186 -446 c 4
 1122 -579 978 -636 752 -636 c 4
 352.541992188 -636 108 -496.14453125 108 -157 c 4
 108 252.3515625 427.580078125 507.139648438 776 567 c 5
 629.959960938 596.770507812 457.951171875 647 368 647 c 4
 294 647 224 608 159 527 c 5
 100 563 l 5
 172.90234375 741.663085938 264.735351562 833 388 833 c 4
 440 831 633 781 968 684 c 4
 1035 664 1110 653 1194 652 c 4
 1203 652 1208 650 1208 645 c 4
 1208 644 1208 642 1207 640 c 6
 1135 470 l 5
 666.30859375 443.709960938 202 227.317382812 202 -152 c 4
EndSplineSet
Substitution2: "'fina' Terminal Forms in Arabic lookup 9 subtable" uniFEA2
Substitution2: "'medi' Medial Forms in Arabic lookup 11 subtable" uniFEA4
Substitution2: "'init' Initial Forms in Arabic lookup 13 subtable" uniFEA3
EndChar

StartChar: uni062F
Encoding: 1583 1583 23
GlifName: uni062F_
Width: 1047
VWidth: 3796
GlyphClass: 2
Flags: HW
AnchorPoint: "Anchor-7" 484.662 -216.64 basechar 0
AnchorPoint: "Anchor-10" 475.345 1230.18 basechar 0
LayerCount: 2
Fore
SplineSet
184 338 m 0
 184 249 268 203 435 203 c 0
 598.255859375 203 841 220.513671875 841 330 c 0
 841 457.248046875 649.505859375 625.483398438 442 778 c 1
 484 963 l 2
 487 975 490 981 498 981 c 0
 505 981 514 977 525 968 c 0
 808 747 937 562 937 353 c 0
 937 106.025390625 704.9375 0 413 0 c 0
 211 0 110 86 110 258 c 0
 110 314 117 351 132 403 c 1
 188 393 l 1
 186 375 184 350 184 338 c 0
EndSplineSet
PairPos2: "'kern' Horizontal Kerning lookup 0 subtable 4" uniFB90 dx=-120 dy=0 dh=-120 dv=0 dx=0 dy=0 dh=0 dv=0
PairPos2: "'kern' Horizontal Kerning lookup 0 subtable 4" uni06A9 dx=-120 dy=0 dh=-120 dv=0 dx=0 dy=0 dh=0 dv=0
PairPos2: "'kern' Horizontal Kerning lookup 0 subtable 4" uniFB94 dx=-120 dy=0 dh=-120 dv=0 dx=0 dy=0 dh=0 dv=0
PairPos2: "'kern' Horizontal Kerning lookup 0 subtable 4" uni06AF dx=-120 dy=0 dh=-120 dv=0 dx=0 dy=0 dh=0 dv=0
Substitution2: "'fina' Terminal Forms in Arabic lookup 9 subtable" uniFEAA
EndChar

StartChar: uni0631
Encoding: 1585 1585 25
GlifName: uni0631
Width: 794
VWidth: 3804
GlyphClass: 2
Flags: HW
AnchorPoint: "Anchor-7" 341.096 -713.978 basechar 0
AnchorPoint: "Anchor-10" 488.105 933.34 basechar 0
LayerCount: 2
Fore
SplineSet
241 -544 m 4
 185 -544 133 -532 59 -510 c 4
 21 -499 -1 -487 -8 -474 c 4
 -13 -465 -10 -458 2 -455 c 4
 376 -363 593 -102 593 55 c 4
 593 136 535 237 418 357 c 5
 500 552 l 6
 510 574 523 574 541 550 c 4
 643 412 694 264 694 106 c 4
 694 -201 421 -544 241 -544 c 4
EndSplineSet
PairPos2: "'kern' Horizontal Kerning lookup 0 subtable 3" uni06C0 dx=-128 dy=0 dh=-128 dv=0 dx=0 dy=0 dh=0 dv=0
PairPos2: "'kern' Horizontal Kerning lookup 0 subtable 3" uni0621 dx=-128 dy=0 dh=-128 dv=0 dx=0 dy=0 dh=0 dv=0
PairPos2: "'kern' Horizontal Kerning lookup 0 subtable 2" uni0648 dx=-43 dy=0 dh=-43 dv=0 dx=0 dy=0 dh=0 dv=0
PairPos2: "'kern' Horizontal Kerning lookup 0 subtable 0" uniFB58 dx=20 dy=0 dh=20 dv=0 dx=0 dy=0 dh=0 dv=0
PairPos2: "'kern' Horizontal Kerning lookup 0 subtable 0" uni0632 dx=-43 dy=0 dh=-43 dv=0 dx=0 dy=0 dh=0 dv=0
PairPos2: "'kern' Horizontal Kerning lookup 0 subtable 0" uni0631 dx=-43 dy=0 dh=-43 dv=0 dx=0 dy=0 dh=0 dv=0
PairPos2: "'kern' Horizontal Kerning lookup 0 subtable 0" uni06CC dx=-43 dy=0 dh=-43 dv=0 dx=0 dy=0 dh=0 dv=0
PairPos2: "'kern' Horizontal Kerning lookup 0 subtable 0" uniFEEB dx=-148 dy=0 dh=-148 dv=0 dx=0 dy=0 dh=0 dv=0
PairPos2: "'kern' Horizontal Kerning lookup 0 subtable 0" uniFB7C dx=-135 dy=0 dh=-135 dv=0 dx=0 dy=0 dh=0 dv=0
PairPos2: "'kern' Horizontal Kerning lookup 0 subtable 0" uniFEDF dx=-148 dy=0 dh=-148 dv=0 dx=0 dy=0 dh=0 dv=0
PairPos2: "'kern' Horizontal Kerning lookup 0 subtable 0" uniFB90 dx=-213 dy=0 dh=-213 dv=0 dx=0 dy=0 dh=0 dv=0
PairPos2: "'kern' Horizontal Kerning lookup 0 subtable 0" uni06A9 dx=-213 dy=0 dh=-213 dv=0 dx=0 dy=0 dh=0 dv=0
PairPos2: "'kern' Horizontal Kerning lookup 0 subtable 0" uni0649 dx=-43 dy=0 dh=-43 dv=0 dx=0 dy=0 dh=0 dv=0
PairPos2: "'kern' Horizontal Kerning lookup 0 subtable 0" uni0647 dx=-148 dy=0 dh=-148 dv=0 dx=0 dy=0 dh=0 dv=0
PairPos2: "'kern' Horizontal Kerning lookup 0 subtable 0" uniFEE7 dx=-148 dy=0 dh=-148 dv=0 dx=0 dy=0 dh=0 dv=0
PairPos2: "'kern' Horizontal Kerning lookup 0 subtable 0" uniFEE3 dx=-148 dy=0 dh=-148 dv=0 dx=0 dy=0 dh=0 dv=0
PairPos2: "'kern' Horizontal Kerning lookup 0 subtable 0" uni0645 dx=-148 dy=0 dh=-148 dv=0 dx=0 dy=0 dh=0 dv=0
PairPos2: "'kern' Horizontal Kerning lookup 0 subtable 0" uni0644 dx=-43 dy=0 dh=-43 dv=0 dx=0 dy=0 dh=0 dv=0
PairPos2: "'kern' Horizontal Kerning lookup 0 subtable 0" uniFEDB dx=-213 dy=0 dh=-213 dv=0 dx=0 dy=0 dh=0 dv=0
PairPos2: "'kern' Horizontal Kerning lookup 0 subtable 0" uniFED7 dx=-148 dy=0 dh=-148 dv=0 dx=0 dy=0 dh=0 dv=0
PairPos2: "'kern' Horizontal Kerning lookup 0 subtable 0" uni0642 dx=-43 dy=0 dh=-43 dv=0 dx=0 dy=0 dh=0 dv=0
PairPos2: "'kern' Horizontal Kerning lookup 0 subtable 0" uniFED3 dx=-148 dy=0 dh=-148 dv=0 dx=0 dy=0 dh=0 dv=0
PairPos2: "'kern' Horizontal Kerning lookup 0 subtable 0" uni0641 dx=-148 dy=0 dh=-148 dv=0 dx=0 dy=0 dh=0 dv=0
PairPos2: "'kern' Horizontal Kerning lookup 0 subtable 0" uniFECF dx=-148 dy=0 dh=-148 dv=0 dx=0 dy=0 dh=0 dv=0
PairPos2: "'kern' Horizontal Kerning lookup 0 subtable 0" uniFECB dx=-148 dy=0 dh=-148 dv=0 dx=0 dy=0 dh=0 dv=0
PairPos2: "'kern' Horizontal Kerning lookup 0 subtable 0" uniFEC7 dx=-148 dy=0 dh=-148 dv=0 dx=0 dy=0 dh=0 dv=0
PairPos2: "'kern' Horizontal Kerning lookup 0 subtable 0" uni0638 dx=-148 dy=0 dh=-148 dv=0 dx=0 dy=0 dh=0 dv=0
PairPos2: "'kern' Horizontal Kerning lookup 0 subtable 0" uniFEC3 dx=-148 dy=0 dh=-148 dv=0 dx=0 dy=0 dh=0 dv=0
PairPos2: "'kern' Horizontal Kerning lookup 0 subtable 0" uni0637 dx=-148 dy=0 dh=-148 dv=0 dx=0 dy=0 dh=0 dv=0
PairPos2: "'kern' Horizontal Kerning lookup 0 subtable 0" uniFEBF dx=-148 dy=0 dh=-148 dv=0 dx=0 dy=0 dh=0 dv=0
PairPos2: "'kern' Horizontal Kerning lookup 0 subtable 0" uni0636 dx=-148 dy=0 dh=-148 dv=0 dx=0 dy=0 dh=0 dv=0
PairPos2: "'kern' Horizontal Kerning lookup 0 subtable 0" uniFEBB dx=-148 dy=0 dh=-148 dv=0 dx=0 dy=0 dh=0 dv=0
PairPos2: "'kern' Horizontal Kerning lookup 0 subtable 0" uni0635 dx=-148 dy=0 dh=-148 dv=0 dx=0 dy=0 dh=0 dv=0
PairPos2: "'kern' Horizontal Kerning lookup 0 subtable 0" uniFEB7 dx=-148 dy=0 dh=-148 dv=0 dx=0 dy=0 dh=0 dv=0
PairPos2: "'kern' Horizontal Kerning lookup 0 subtable 0" uni0634 dx=-148 dy=0 dh=-148 dv=0 dx=0 dy=0 dh=0 dv=0
PairPos2: "'kern' Horizontal Kerning lookup 0 subtable 0" uniFEB3 dx=-148 dy=0 dh=-148 dv=0 dx=0 dy=0 dh=0 dv=0
PairPos2: "'kern' Horizontal Kerning lookup 0 subtable 0" uni0633 dx=-148 dy=0 dh=-148 dv=0 dx=0 dy=0 dh=0 dv=0
PairPos2: "'kern' Horizontal Kerning lookup 0 subtable 0" uni0630 dx=-148 dy=0 dh=-148 dv=0 dx=0 dy=0 dh=0 dv=0
PairPos2: "'kern' Horizontal Kerning lookup 0 subtable 0" uni062F dx=-148 dy=0 dh=-148 dv=0 dx=0 dy=0 dh=0 dv=0
PairPos2: "'kern' Horizontal Kerning lookup 0 subtable 0" uniFEA7 dx=-148 dy=0 dh=-148 dv=0 dx=0 dy=0 dh=0 dv=0
PairPos2: "'kern' Horizontal Kerning lookup 0 subtable 0" uniFEA3 dx=-148 dy=0 dh=-148 dv=0 dx=0 dy=0 dh=0 dv=0
PairPos2: "'kern' Horizontal Kerning lookup 0 subtable 0" uniFE9F dx=-148 dy=0 dh=-148 dv=0 dx=0 dy=0 dh=0 dv=0
PairPos2: "'kern' Horizontal Kerning lookup 0 subtable 0" uniFE9B dx=-148 dy=0 dh=-148 dv=0 dx=0 dy=0 dh=0 dv=0
PairPos2: "'kern' Horizontal Kerning lookup 0 subtable 0" uni062B dx=-148 dy=0 dh=-148 dv=0 dx=0 dy=0 dh=0 dv=0
PairPos2: "'kern' Horizontal Kerning lookup 0 subtable 0" uniFE97 dx=-148 dy=0 dh=-148 dv=0 dx=0 dy=0 dh=0 dv=0
PairPos2: "'kern' Horizontal Kerning lookup 0 subtable 0" uni062A dx=-148 dy=0 dh=-148 dv=0 dx=0 dy=0 dh=0 dv=0
PairPos2: "'kern' Horizontal Kerning lookup 0 subtable 0" uni0629 dx=-148 dy=0 dh=-148 dv=0 dx=0 dy=0 dh=0 dv=0
PairPos2: "'kern' Horizontal Kerning lookup 0 subtable 0" uniFE91 dx=-53 dy=0 dh=-53 dv=0 dx=0 dy=0 dh=0 dv=0
PairPos2: "'kern' Horizontal Kerning lookup 0 subtable 0" uni0628 dx=-148 dy=0 dh=-148 dv=0 dx=0 dy=0 dh=0 dv=0
PairPos2: "'kern' Horizontal Kerning lookup 0 subtable 0" uni0627 dx=-148 dy=0 dh=-148 dv=0 dx=0 dy=0 dh=0 dv=0
PairPos2: "'kern' Horizontal Kerning lookup 0 subtable 0" uni0622 dx=-148 dy=0 dh=-148 dv=0 dx=0 dy=0 dh=0 dv=0
PairPos2: "'kern' Horizontal Kerning lookup 0 subtable 0" uniFB94 dx=-235 dy=0 dh=-235 dv=0 dx=0 dy=0 dh=0 dv=0
PairPos2: "'kern' Horizontal Kerning lookup 0 subtable 0" uni06AF dx=-235 dy=0 dh=-235 dv=0 dx=0 dy=0 dh=0 dv=0
PairPos2: "'kern' Horizontal Kerning lookup 0 subtable 0" uniFB56 dx=-148 dy=0 dh=-148 dv=0 dx=0 dy=0 dh=0 dv=0
PairPos2: "'kern' Horizontal Kerning lookup 0 subtable 0" uni067E dx=-148 dy=0 dh=-148 dv=0 dx=0 dy=0 dh=0 dv=0
Substitution2: "'fina' Terminal Forms in Arabic lookup 9 subtable" uniFEAE
EndChar

StartChar: uni0633
Encoding: 1587 1587 27
GlifName: uni0633
Width: 2333
VWidth: 3804
GlyphClass: 2
Flags: HW
AnchorPoint: "Anchor-7" 646.427 -790.57 basechar 0
AnchorPoint: "Anchor-10" 1683.94 1043.52 basechar 0
LayerCount: 2
Fore
SplineSet
1921 2 m 0
 1804 2 1716 53 1660 155 c 1
 1584 52 1505 -1 1421 -1 c 0
 1346 -1 1294 30 1263 61 c 1
 1269 21 1271 -18 1271 -55 c 0
 1271 -407 995 -599 653 -599 c 0
 291 -599 110 -460 110 -181 c 0
 110 -68 141 60 204 202 c 1
 261 178 l 1
 227 61 210 -26 210 -94 c 0
 210 -299 360 -401 659 -401 c 0
 875 -401 1088 -319 1181 -187 c 1
 1177 -93 1118 72 1010 270 c 1
 1094 404 l 2
 1110 429 1124 430 1137 405 c 0
 1171 339 1195 294 1210 269 c 16
 1237.41601562 223.958984375 1307.01757812 200.96875 1422.55957031 200.96875 c 0
 1545.71191406 200.96875 1616.4765625 255.83203125 1636 374 c 2
 1654 478 l 1
 1738 466 l 1
 1728 387 l 2
 1712.84570312 261.728515625 1781.83789062 202 1929 202 c 0
 2031.27539062 202 2104 223.913085938 2104 293 c 0
 2104 343.717773438 2056.17382812 461.022460938 2027 526 c 1
 2109 672 l 2
 2121 693 2131 696 2140 679 c 0
 2203 559 2223 450 2223 327 c 0
 2223 164.146484375 2073.22851562 2 1921 2 c 0
EndSplineSet
Substitution2: "'fina' Terminal Forms in Arabic lookup 9 subtable" uniFEB2
Substitution2: "'medi' Medial Forms in Arabic lookup 11 subtable" uniFEB4
Substitution2: "'init' Initial Forms in Arabic lookup 13 subtable" uniFEB3
EndChar

StartChar: uni0635
Encoding: 1589 1589 29
GlifName: uni0635
Width: 2570
VWidth: 3805
GlyphClass: 2
Flags: HW
AnchorPoint: "Anchor-7" 646.427 -790.57 basechar 0
AnchorPoint: "Anchor-10" 2047.94 1235.14 basechar 0
LayerCount: 2
Fore
SplineSet
1423 201 m 5
 1633 483 1906 749 2130 749 c 4
 2348 749 2460 597 2460 428 c 4
 2460 72 1984 0 1618 0 c 6
 1520 0 l 6
 1399 0 1313 21 1263 61 c 1
 1269 21 1271 -18 1271 -55 c 0
 1271 -407 995 -599 653 -599 c 0
 291 -599 110 -460 110 -181 c 0
 110 -68 141 60 204 202 c 1
 261 178 l 1
 227 61 210 -26 210 -94 c 0
 210 -299 360 -401 659 -401 c 0
 875 -401 1088 -319 1181 -187 c 1
 1177 -93 1118 72 1010 270 c 1
 1094 404 l 2
 1110 429 1124 430 1137 405 c 0
 1171 339 1195 294 1210 269 c 24
 1235 226 1307 205 1423 201 c 5
1533 201 m 5
 1625 201 l 6
 2091 201 2340 236 2340 353 c 4
 2340 462 2230 550 2080 550 c 4
 1863 550 1675 353 1533 201 c 5
EndSplineSet
Substitution2: "'fina' Terminal Forms in Arabic lookup 9 subtable" uniFEBA
Substitution2: "'medi' Medial Forms in Arabic lookup 11 subtable" uniFEBC
Substitution2: "'init' Initial Forms in Arabic lookup 13 subtable" uniFEBB
EndChar

StartChar: uni0637
Encoding: 1591 1591 31
GlifName: uni0637
Width: 1605
VWidth: 3805
GlyphClass: 2
Flags: HW
AnchorPoint: "Anchor-10" 549.377 1634.21 basechar 0
AnchorPoint: "Anchor-7" 745.854 -221.413 basechar 0
LayerCount: 2
Fore
SplineSet
636 1492 m 6
 653 415 l 5
 846 638 1016 749 1166 749 c 0
 1384 749 1495 597 1495 428 c 0
 1495 72 1043 0 654 0 c 2
 395 0 l 2
 282 0 219 54 176 93 c 2
 103 160 l 2
 82 179 98 199 125 199 c 2
 458 201 l 1
 486 236 514 271 542 306 c 5
 534 904 492.342618554 1324.15434209 478 1390 c 5
 591 1512 l 6
 617.924804688 1541.06933594 635.107421875 1547.99902344 636 1492 c 6
568 201 m 1
 661 201 l 2
 1127 201 1375 236 1375 353 c 0
 1375 462 1266 550 1116 550 c 0
 899 550 710 353 568 201 c 1
EndSplineSet
Substitution2: "'fina' Terminal Forms in Arabic lookup 9 subtable" uniFEC2
Substitution2: "'medi' Medial Forms in Arabic lookup 11 subtable" uniFEC4
Substitution2: "'init' Initial Forms in Arabic lookup 13 subtable" uniFEC3
EndChar

StartChar: uni0639
Encoding: 1593 1593 33
GlifName: uni0639
Width: 1305
VWidth: 3798
GlyphClass: 2
Flags: HW
AnchorPoint: "Anchor-7" 654.792 -826.821 basechar 0
AnchorPoint: "Anchor-10" 695.211 1390.07 basechar 0
LayerCount: 2
Fore
SplineSet
761 -455 m 4
 879 -455 1045 -440 1194 -422 c 4
 1194 -423 1195 -424 1195 -425 c 4
 1195 -429 1192 -436 1188 -446 c 4
 1124 -581 978 -636 750 -636 c 4
 348 -636 110 -514 110 -151 c 4
 110 62 225 237 455 377 c 5
 361 482 334 580 334 671 c 4
 334 843 518 1055 695 1055 c 4
 836 1055 942 991 1013 843 c 5
 977 800 l 5
 879 839 794 859 721 859 c 4
 633 859 562 834 505 785 c 4
 456 743 432 706 432 675 c 4
 432 638 472 594 547 536 c 20
 592 501 629 483 659 483 c 6
 669 483 l 5
 763 497 857 512 951 527 c 5
 1093 545 l 6
 1097 546 1100 546 1103 546 c 4
 1116 546 1121 540 1121 530 c 4
 1121 525 1120 520 1118 513 c 6
 1056 340 l 5
 723 335 204 162 204 -157 c 4
 204 -391 479 -455 761 -455 c 4
EndSplineSet
Substitution2: "'fina' Terminal Forms in Arabic lookup 9 subtable" uniFECA
Substitution2: "'medi' Medial Forms in Arabic lookup 11 subtable" uniFECC
Substitution2: "'init' Initial Forms in Arabic lookup 13 subtable" uniFECB
EndChar

StartChar: uni0640
Encoding: 1600 1600 35
GlifName: afii57440
Width: 279
VWidth: 3832
GlyphClass: 2
Flags: HW
AnchorPoint: "Anchor-10" 149.292 1371.65 basechar 0
AnchorPoint: "Anchor-7" 148.208 -195.825 basechar 0
LayerCount: 2
Fore
SplineSet
-5 199 m 2
 284 199 l 2
 300 199 314 167 314 102 c 6
 314 95 l 6
 314 32 300 0 284 0 c 2
 -5 0 l 2
 -48 0 -50 32 -50 94 c 2
 -50 104 l 2
 -50 167 -47 199 -5 199 c 2
EndSplineSet
EndChar

StartChar: uni0643
Encoding: 1603 1603 38
GlifName: uni0643
Width: 1894
VWidth: 3764
GlyphClass: 2
Flags: HW
AnchorPoint: "Anchor-7" 886.157 -267.146 basechar 0
AnchorPoint: "Anchor-10" 969.059 1412.01 basechar 0
LayerCount: 2
Fore
SplineSet
841 -57 m 0
 356 -57 110 66 110 324 c 0
 110 423 145 544 214 647 c 1
 273 624 l 1
 237 532 218 461 218 398 c 0
 218 236 429 141 845 141 c 0
 1303 141 1621 181 1621 424 c 0
 1621 455 1619 509 1617 589 c 0
 1601 1015 1594 1281 1576 1400 c 1
 1688 1517 l 2
 1700 1529 1707 1536 1713 1536 c 0
 1721 1536 1724 1526 1724 1505 c 2
 1734 585 l 2
 1741 5 1449 -57 841 -57 c 0
1195 745 m 4
 1195 598 1072 526 927 526 c 4
 842 526 765 538 696 561 c 5
 710 702 l 5
 780 677 853 665 929 665 c 4
 1035 665 1108 688 1108 743 c 4
 1108 774 1063 799 970 819 c 4
 856 843 799 910 799 1019 c 4
 799 1178 953 1232 1121 1252 c 4
 1127 1253 1132 1253 1137 1253 c 4
 1157 1253 1167 1247 1167 1233 c 4
 1167 1229 1166 1224 1164 1218 c 6
 1127 1112 l 5
 961 1096 876 1063 876 1009 c 4
 876 977 928 954 1030 936 c 4
 1139 917 1195 854 1195 745 c 4
EndSplineSet
Substitution2: "'fina' Terminal Forms in Arabic lookup 9 subtable" uniFEDA
Substitution2: "'medi' Medial Forms in Arabic lookup 11 subtable" uniFEDC
Substitution2: "'init' Initial Forms in Arabic lookup 13 subtable" uniFEDB
EndChar

StartChar: uni0644
Encoding: 1604 1604 39
GlifName: uni0644
Width: 1399
VWidth: 3805
GlyphClass: 2
Flags: HW
AnchorPoint: "Anchor-7" 646.427 -790.57 basechar 0
AnchorPoint: "Anchor-10" 596.527 1034.82 basechar 0
LayerCount: 2
Fore
SplineSet
1219 1491 m 2
 1238 -53 l 2
 1238.07382302 -58.9990915561 1239 -65 1239 -71 c 0
 1239 -415 973 -599 623 -599 c 0
 281 -599 110 -460 110 -181 c 0
 110 -39 154 88 204 202 c 1
 261 178 l 1
 227 61 210 -26 210 -94 c 0
 210 -299 350 -401 629 -401 c 0
 873 -401 1043 -317 1139 -189 c 1
 1104 764 1084 1275 1061 1389 c 1
 1174 1511 l 2
 1200.9249991 1540.06946805 1218.46484375 1547.00488281 1219 1491 c 2
EndSplineSet
Substitution2: "'fina' Terminal Forms in Arabic lookup 9 subtable" uniFEDE
Substitution2: "'medi' Medial Forms in Arabic lookup 11 subtable" uniFEE0
Substitution2: "'init' Initial Forms in Arabic lookup 13 subtable" uniFEDF
EndChar

StartChar: uni0645
Encoding: 1605 1605 40
GlifName: uni0645
Width: 1056
VWidth: 3835
GlyphClass: 2
Flags: HW
AnchorPoint: "Anchor-10" 583.659 1033.03 basechar 0
AnchorPoint: "Anchor-7" 215.123 -858.52 basechar 0
LayerCount: 2
Fore
SplineSet
380 232 m 5
 537 232 690 213 845 174 c 4
 853 172 857 175 854 184 c 4
 788 357 690 466 566 466 c 4
 461 466 409 336 380 232 c 5
843 36 m 4
 825 21 800 13 766 13 c 4
 754 13 740 14 725 16 c 4
 573 37 455 48 370 48 c 4
 306 48 261 42 235 30 c 5
 242 -531 l 6
 243 -577 225 -629 188 -687 c 4
 162.891478023 -728.086672325 122.186906204 -807.382795063 120 -721 c 6
 110 -190 l 6
 105.875750281 28.9976600806 174 162 304 229 c 5
 353 511 446 651 585 651 c 4
 780 651 946 374 946 180 c 4
 946 140 912 92 843 36 c 4
EndSplineSet
Substitution2: "'init' Initial Forms in Arabic lookup 13 subtable" uniFEE3
Substitution2: "'medi' Medial Forms in Arabic lookup 11 subtable" uniFEE4
Substitution2: "'fina' Terminal Forms in Arabic lookup 9 subtable" uniFEE2
EndChar

StartChar: uni0647
Encoding: 1607 1607 42
GlifName: uni0647
Width: 816
VWidth: 3797
GlyphClass: 2
Flags: HW
AnchorPoint: "Anchor-10" 340.29 1041.38 basechar 0
AnchorPoint: "Anchor-7" 381.864 -234.307 basechar 0
LayerCount: 2
Fore
SplineSet
196 315 m 0
 196 231 270 198 398 198 c 0
 497 198 625 238 625 332 c 0
 625 440 453 517 320 574 c 1
 258 496 196 405 196 315 c 0
396 2 m 0
 187 2 110 106 110 313 c 0
 110 506 307 776 355 776 c 0
 425 776 706 629 706 339 c 0
 706 112 571 2 396 2 c 0
EndSplineSet
Substitution2: "'fina' Terminal Forms in Arabic lookup 9 subtable" uniFEEA
Substitution2: "'medi' Medial Forms in Arabic lookup 11 subtable" uniFEEC
Substitution2: "'init' Initial Forms in Arabic lookup 13 subtable" uniFEEB
EndChar

StartChar: uni0648
Encoding: 1608 1608 43
GlifName: uni0648
Width: 807
VWidth: 3833
GlyphClass: 2
Flags: HW
AnchorPoint: "Anchor-7" 351.096 -713.978 basechar 0
AnchorPoint: "Anchor-10" 414.667 1030.67 basechar 0
LayerCount: 2
Fore
SplineSet
415 635 m 4
 609 635 707 371 707 144 c 4
 707 -213 434 -544 252 -544 c 0
 197 -544 145 -532 71 -510 c 0
 33 -499 11 -487 4 -474 c 0
 -1 -465 1 -458 13 -455 c 0
 333 -361 518 -212 594 -8 c 5
 544 -18 496 -24 452 -24 c 4
 266 -24 157 50 157 230 c 4
 157 398 258 635 415 635 c 4
255 267 m 4
 255 196 309 179 415 179 c 4
 464 179 523 185 594 195 c 5
 582 311 526 443 407 443 c 4
 311 443 255 337 255 267 c 4
EndSplineSet
Substitution2: "'fina' Terminal Forms in Arabic lookup 9 subtable" uniFEEE
EndChar

StartChar: uni0649
Encoding: 1609 1609 44
GlifName: uni0649
Width: 1553
VWidth: 3805
GlyphClass: 2
Flags: HW
AnchorPoint: "Anchor-10" 659.458 869.11 basechar 0
AnchorPoint: "Anchor-7" 710.003 -784.57 basechar 0
LayerCount: 2
Fore
SplineSet
673 -585 m 0
 298 -585 110 -440 110 -151 c 0
 110 -38 141 90 204 232 c 1
 261 208 l 1
 227 91 210 1 210 -64 c 0
 210 -284 369 -393 687 -393 c 0
 1099 -393 1295 -226 1295 -175 c 0
 1295 -158 1272 -144 1226 -133 c 2
 888 -51 l 2
 831 -37 803 9 803 87 c 0
 803 405 1051 674 1330 674 c 0
 1379 674 1427 667 1475 651 c 5
 1437 452 l 5
 1391 456 l 2
 1365 458 1341 460 1317 460 c 0
 1099 460 927 323 905 143 c 1
 1277 50 l 2
 1354 31 1393 -14 1393 -86 c 0
 1393 -405 1094 -585 673 -585 c 0
EndSplineSet
Substitution2: "'fina' Terminal Forms in Arabic lookup 9 subtable" uniFEF0
Substitution2: "'medi' Medial Forms in Arabic lookup 11 subtable" uniFBE9
Substitution2: "'init' Initial Forms in Arabic lookup 13 subtable" uniFBE8
EndChar

StartChar: uni064B
Encoding: 1611 1611 46
GlifName: uni064B_
Width: 10
VWidth: 2316
GlyphClass: 4
Flags: HW
AnchorPoint: "Anchor-10" 583.551 1123.65 mark 0
AnchorPoint: "Anchor-9" 583.551 1123.65 mark 0
AnchorPoint: "Anchor-1" 553.285 1596.25 basemark 0
AnchorPoint: "Anchor-1" 583.551 1123.65 mark 0
LayerCount: 2
Fore
SplineSet
332 1083.46075667 m 1
 332 1176.64231219 l 1
 777 1358.5544001 l 1
 777 1266.35086656 l 1
 332 1083.46075667 l 1
332 1295.46075667 m 1
 332 1388.64231219 l 1
 777 1570.5544001 l 1
 777 1478.35086656 l 1
 332 1295.46075667 l 1
EndSplineSet
EndChar

StartChar: uni064C
Encoding: 1612 1612 47
GlifName: uni064C_
Width: 0
VWidth: 2316
GlyphClass: 4
Flags: HW
AnchorPoint: "Anchor-10" 680.906 1278.67 mark 0
AnchorPoint: "Anchor-9" 680.906 1278.67 mark 0
AnchorPoint: "Anchor-1" 637.739 1852.46 basemark 0
AnchorPoint: "Anchor-1" 680.906 1278.67 mark 0
LayerCount: 2
Fore
SplineSet
494 1629 m 0
 494 1723.63329299 560.119882571 1786 652 1786 c 0
 744.379754724 1786 809 1724.62409488 809 1628 c 0
 809 1589.84855533 799.184863232 1548.4533922 782.398345408 1508.9557032 c 2
 779.938918125 1503.16881548 l 1
 786.13107333 1502.07608221 l 2
 801.007411301 1499.45084609 814.455587069 1498.36524189 825 1498.06216393 c 1
 825 1432.27581954 l 1
 805.489625187 1433.41207624 783.991010681 1435.46381693 754.921442675 1440.91436093 c 2
 751.289177915 1441.59541058 l 1
 749.572323331 1438.32286016 l 2
 687.030465591 1319.10986176 595.606722063 1255.9921875 471.8671875 1255.9921875 c 0
 343.480809364 1255.9921875 277.127543771 1344.53227742 273.079320377 1525.8222266 c 1
 342.144479137 1538.06162183 l 1
 346.341169076 1396.68302842 388.911869632 1324 473 1324 c 0
 549.143460968 1324 617.449182049 1369.29765824 676.929772822 1444.90857871 c 2
 681.255867371 1450.40785145 l 1
 674.651752124 1452.71929178 l 2
 568.935800404 1489.71987489 494 1537.39046349 494 1629 c 0
713.59572515 1521.03040351 m 2
 727.765060921 1554.09218697 741 1593.31654836 741 1627 c 0
 741 1677.65332802 702.515881027 1716 656 1716 c 0
 603.259236679 1716 564 1679.89865305 564 1625 c 0
 564 1562.95746773 643.606736428 1535.13777406 707.720537199 1518.16647386 c 2
 711.894778363 1517.06152767 l 1
 713.59572515 1521.03040351 l 2
EndSplineSet
EndChar

StartChar: uni064D
Encoding: 1613 1613 48
GlifName: uni064D_
Width: 3
VWidth: 2316
GlyphClass: 4
Flags: HW
AnchorPoint: "Anchor-7" 545.278 32.7109 mark 0
AnchorPoint: "Anchor-6" 545.278 32.7109 mark 0
AnchorPoint: "Anchor-0" 595.022 -407.025 basemark 0
AnchorPoint: "Anchor-0" 545.278 32.7109 mark 0
LayerCount: 2
Fore
SplineSet
340 -438.560576973 m 1
 340 -345.360475659 l 1
 786 -163.439423027 l 1
 786 -256.639524341 l 1
 340 -438.560576973 l 1
340 -226.560576973 m 1
 340 -133.360475659 l 1
 786 48.5605769726 l 1
 786 -44.6395243411 l 1
 340 -226.560576973 l 1
EndSplineSet
EndChar

StartChar: uni064E
Encoding: 1614 1614 49
GlifName: uni064E_
Width: 0
VWidth: 2316
GlyphClass: 4
Flags: HW
AnchorPoint: "Anchor-10" 545.66 1397.63 mark 0
AnchorPoint: "Anchor-9" 545.66 1397.63 mark 0
AnchorPoint: "Anchor-1" 541.396 1651.77 basemark 0
AnchorPoint: "Anchor-1" 545.66 1397.63 mark 0
LayerCount: 2
Fore
SplineSet
301 1356.43942303 m 1
 301 1449.63952434 l 1
 747 1631.56057697 l 1
 747 1538.36047566 l 1
 301 1356.43942303 l 1
EndSplineSet
EndChar

StartChar: uni064F
Encoding: 1615 1615 50
GlifName: uni064F_
Width: 10
VWidth: 2316
GlyphClass: 4
Flags: HW
AnchorPoint: "Anchor-10" 591.295 1359.37 mark 0
AnchorPoint: "Anchor-9" 591.295 1359.37 mark 0
AnchorPoint: "Anchor-1" 542.134 1865.4 basemark 0
AnchorPoint: "Anchor-1" 591.295 1359.37 mark 0
LayerCount: 2
Fore
SplineSet
718 1432.02159536 m 1
 691.762246135 1432.25790499 668.049578666 1434.20504422 643.760285921 1437.94185849 c 2
 640.719529887 1438.40966711 l 1
 638.931332644 1435.90619097 l 2
 576.473204058 1348.46481095 422.096791061 1323.4809552 261 1314.2872577 c 1
 261 1382.43473098 l 1
 390.269788496 1394.13852523 520.773439719 1399.58640887 569.643138345 1451.57544996 c 2
 575.940370086 1458.27463266 l 1
 566.894427191 1459.91934955 l 2
 476.241957658 1476.40161674 385 1536.29304351 385 1626 c 0
 385 1721.04757637 451.315386076 1783 543 1783 c 0
 634.926440427 1783 701 1720.6164698 701 1625 c 0
 701 1586.78071216 692.192900017 1548.46072417 675.381289432 1507.91507511 c 2
 672.940026843 1502.02732416 l 1
 679.239714079 1501.05814151 l 2
 690.672005738 1499.29932741 705.650453185 1497.43044845 718 1497.06912885 c 1
 718 1432.02159536 l 1
604.59572515 1518.03040351 m 2
 618.765060921 1551.09218697 632 1590.31654836 632 1624 c 0
 632 1675.14853302 594.194938723 1712 547 1712 c 0
 493.954468047 1712 455 1677.25043765 455 1622 c 0
 455 1559.95746773 534.606736428 1532.13777406 598.720537199 1515.16647386 c 2
 602.894778363 1514.06152767 l 1
 604.59572515 1518.03040351 l 2
EndSplineSet
EndChar

StartChar: uni0650
Encoding: 1616 1616 51
GlifName: uni0650
Width: 10
VWidth: 2316
GlyphClass: 4
Flags: HW
AnchorPoint: "Anchor-7" 571.144 -44.8242 mark 0
AnchorPoint: "Anchor-6" 571.144 -44.8242 mark 0
AnchorPoint: "Anchor-0" 619.091 -324.624 basemark 0
AnchorPoint: "Anchor-0" 571.144 -44.8242 mark 0
LayerCount: 2
Fore
SplineSet
348 -338.539243334 m 1
 348 -245.357687809 l 1
 793 -63.4455998965 l 1
 793 -155.649133443 l 1
 348 -338.539243334 l 1
EndSplineSet
EndChar

StartChar: uni0651
Encoding: 1617 1617 52
GlifName: uni0651
Width: 4
VWidth: 2264
GlyphClass: 4
Flags: HW
AnchorPoint: "Anchor-10" 595 1445 mark 0
AnchorPoint: "Anchor-9" 595 1445 mark 0
AnchorPoint: "Anchor-1" 574 1868 basemark 0
AnchorPoint: "Anchor-1" 595 1445 mark 0
LayerCount: 2
Fore
SplineSet
783.141601562 1689.25878906 m 0
 783.046875 1732.41992188 780.73828125 1768.12695312 776.215820312 1796.38085938 c 1
 792.73828125 1828.12695312 812.069335938 1828.453125 834.208984375 1797.35839844 c 1
 841.403320312 1745.11914062 844.907226562 1704.95019531 844.720703125 1676.8515625 c 0
 844.907226562 1548.28417969 799.56640625 1483.96484375 708.700195312 1483.89550781 c 0
 649.56640625 1483.96484375 609.895507812 1505.13769531 589.6875 1547.41308594 c 1
 568.5625 1457.13769531 516.3515625 1412.10644531 433.053710938 1412.31835938 c 0
 348.3515625 1412.10644531 305.735351562 1467 305.206054688 1577 c 0
 305.068359375 1611.66699219 309.282226562 1655.18164062 317.84765625 1707.54394531 c 1
 339.94921875 1741.84765625 359.21875 1741.54199219 375.657226562 1706.62695312 c 1
 369.21875 1658.87597656 365.865234375 1627.63964844 365.595703125 1612.91992188 c 0
 365.865234375 1547.63964844 391.205078125 1515.0546875 441.614257812 1515.16503906 c 0
 505.205078125 1515.0546875 538.681640625 1558.61230469 542.045898438 1645.83789062 c 0
 543.348632812 1674.61230469 543.770507812 1713.62890625 543.3125 1762.88574219 c 1
 565.770507812 1792.96191406 584.846679688 1792.90136719 600.540039062 1762.70410156 c 1
 601.513671875 1725.56835938 602.157226562 1705.81835938 602.47265625 1703.45605469 c 0
 602.157226562 1629.81835938 635.517578125 1592.81054688 702.552734375 1592.43066406 c 0
 756.184570312 1592.14355469 783.046875 1624.41992188 783.141601562 1689.25878906 c 0
EndSplineSet
EndChar

StartChar: uni0652
Encoding: 1618 1618 53
GlifName: uni0652
Width: 7
VWidth: 2316
GlyphClass: 4
Flags: HW
AnchorPoint: "Anchor-10" 609.219 1271.43 mark 0
AnchorPoint: "Anchor-9" 609.219 1271.43 mark 0
AnchorPoint: "Anchor-1" 589.537 1682.66 basemark 0
AnchorPoint: "Anchor-1" 609.219 1271.43 mark 0
LayerCount: 2
Fore
SplineSet
426 1462 m 0
 426 1555.24865009 500.751550507 1630 594 1630 c 0
 687.276091903 1630 763 1555.20964747 763 1462 c 0
 763 1368.76269565 687.237125686 1293 594 1293 c 0
 500.790105012 1293 426 1368.72405238 426 1462 c 0
597 1362 m 0
 651.828519426 1362 696 1407.29296614 696 1462 c 0
 696 1516.8082802 651.685385891 1560 597 1560 c 0
 542.859417929 1560 497.982421875 1515.77172552 497.982421875 1461.77734375 c 0
 497.982421875 1405.45062413 540.65107966 1362 597 1362 c 0
EndSplineSet
EndChar

StartChar: uni0653
Encoding: 1619 1619 54
GlifName: uni0653
Width: 0
GlyphClass: 4
Flags: HW
AnchorPoint: "Anchor-10" 485 1566 mark 0
AnchorPoint: "Anchor-9" 485 1566 mark 0
AnchorPoint: "Anchor-1" 455 2024 basemark 0
AnchorPoint: "Anchor-1" 485 1566 mark 0
LayerCount: 2
Fore
SplineSet
315 1821 m 4
 381.907656185 1821 520.6354047 1796 583 1796 c 4
 666 1796 725.057617188 1814.76464844 758 1823 c 4
 826 1840 836 1827 801 1779 c 4
 744.768554688 1701.8828125 689 1668 526 1668 c 4
 479 1668 425.788713735 1680 362 1680 c 4
 283 1680 237 1635 177 1582 c 5
 158 1596 145 1608 134 1621 c 5
 188 1761 249 1821 315 1821 c 4
EndSplineSet
EndChar

StartChar: uni0657
Encoding: 1623 1623 57
GlifName: uni0657
Width: 4
VWidth: 2316
GlyphClass: 4
Flags: HW
AnchorPoint: "Anchor-10" 513.285 1400.55 mark 0
AnchorPoint: "Anchor-9" 513.285 1400.55 mark 0
AnchorPoint: "Anchor-1" 537.285 2069.85 basemark 0
AnchorPoint: "Anchor-1" 513.285 1400.55 mark 0
LayerCount: 2
Fore
SplineSet
270 1799.86299846 m 1
 309.23047206 1798.70922207 349.471098619 1795.8152864 394.471069727 1791.02805543 c 2
 396.846425792 1790.77535798 l 1
 398.535533906 1792.46446609 l 1
 399.535533906 1793.46446609 l 1
 399.840060296 1793.76899248 l 1
 400.088028197 1794.1211069 l 2
 498.407658805 1933.73498237 624.945262148 2011.36435202 780 2027.48302794 c 1
 780 1959.23680704 l 1
 656.456522052 1937.97910028 557.906660966 1878.88070282 482.048900994 1781.0641176 c 2
 477.550321835 1775.26331815 l 1
 484.595506234 1773.20131296 l 2
 571.07914334 1747.88902894 653 1693.87373611 653 1599 c 0
 653 1510.22914023 590.228131756 1443 501 1443 c 0
 411.041015293 1443 337 1505.49860711 337 1603 c 0
 337 1631.21877424 343.868969128 1670.81002259 359.762120736 1720.47612136 c 2
 361.695438772 1726.51774023 l 1
 355.369358428 1726.98633877 l 2
 329.857864284 1728.87607908 301.16283577 1730.78468387 270 1730.98593846 c 1
 270 1799.86299846 l 1
501 1511 m 0
 551.9455793 1511 582 1546.72486232 582 1597 c 0
 582 1662.79910824 504.016306416 1698.18350637 438.158102636 1713.86403107 c 2
 434.027402753 1714.84753105 l 1
 432.387795058 1710.93069044 l 2
 414.263422559 1667.63357836 405 1633.09529798 405 1605 c 0
 405 1549.93136866 448.776516104 1511 501 1511 c 0
EndSplineSet
EndChar

StartChar: uni065A
Encoding: 1626 1626 58
GlifName: uni065A_
Width: 1135
VWidth: 2316
GlyphClass: 4
Flags: HW
AnchorPoint: "Anchor-10" 573.285 1350.55 mark 0
AnchorPoint: "Anchor-9" 573.285 1350.55 mark 0
AnchorPoint: "Anchor-1" 571.012 1862.38 basemark 0
AnchorPoint: "Anchor-1" 573.285 1350.55 mark 0
LayerCount: 2
Fore
SplineSet
524.696658517 1449 m 1
 318.270732591 1763 l 1
 430.128148338 1763 l 1
 568.681105496 1525.48064487 l 1
 572.98464418 1518.10314999 l 1
 577.311055733 1525.46725476 l 1
 716.861543563 1763 l 1
 828.705344085 1763 l 1
 621.310282357 1449 l 1
 524.696658517 1449 l 1
EndSplineSet
EndChar

StartChar: uni0660
Encoding: 1632 1632 59
GlifName: afii57392
Width: 895
VWidth: 3370
GlyphClass: 2
Flags: HW
LayerCount: 2
Fore
SplineSet
450.176757812 772.424804688 m 5
 674.428710938 548.171875 l 5
 444.780273438 318.5234375 l 5
 220.528320312 542.77734375 l 5
 450.176757812 772.424804688 l 5
EndSplineSet
EndChar

StartChar: uni0661
Encoding: 1633 1633 60
GlifName: afii57393
Width: 742
VWidth: 3360
GlyphClass: 2
Flags: HW
LayerCount: 2
Fore
SplineSet
288 1418 m 4
 445 1009 524 627 524 256 c 4
 524 101 498 16 446 3 c 5
 445 371 343 795 142 1284 c 5
 248 1427 l 6
 264.446141707 1449.18677608 277 1446 288 1418 c 4
EndSplineSet
EndChar

StartChar: uni0662
Encoding: 1634 1634 61
GlifName: afii57394
Width: 1088
VWidth: 3360
GlyphClass: 2
Flags: HW
LayerCount: 2
Fore
SplineSet
446 913 m 1
 498 676 524 455 524 252 c 0
 524 100 499 14 445 3 c 1
 445 372 344 800 142 1284 c 1
 248 1427 l 2
 273.537230891 1461.45116997 286 1425 298 1392 c 0
 314.880862053 1345.57762935 359 1235 365 1222 c 0
 396 1145 479 1108 613 1108 c 0
 771 1108 859 1198 878 1379 c 2
 883 1429 l 1
 970 1416 l 1
 968 1359 l 2
 956 1056 831 905 578 905 c 0
 526.260742188 905 490 908 446 913 c 1
EndSplineSet
EndChar

StartChar: uni0663
Encoding: 1635 1635 62
GlifName: afii57395
Width: 1275
VWidth: 3360
GlyphClass: 2
Flags: HW
LayerCount: 2
Fore
SplineSet
446 913 m 1
 498 676 524 455 524 252 c 0
 524 100 499 14 445 3 c 1
 445 372.61328125 344.649414062 798.4453125 142 1284 c 1
 248 1427 l 2
 263.489348272 1447.89600757 278.125976562 1446.62207031 288 1417 c 0
 312 1348 330.084880961 1303.03223746 346 1261 c 0
 385 1158 454 1108 553 1108 c 0
 655 1108 708 1165 714 1280 c 2
 719 1388 l 1
 818 1385 l 1
 822 1280 l 2
 828 1164 866 1105 935 1105 c 0
 1036 1105 1087 1191 1087 1361 c 2
 1087 1413 l 1
 1184 1407 l 1
 1184 1332 l 2
 1184 1055.265625 1101.96777344 917 939 917 c 0
 856 917 792 956 745 1032 c 1
 691 949 612 908 510 908 c 0
 490 908 468 910 446 913 c 1
EndSplineSet
EndChar

StartChar: uni0664
Encoding: 1636 1636 63
GlifName: afii57396
Width: 978
VWidth: 3367
GlyphClass: 2
Flags: HW
LayerCount: 2
Fore
SplineSet
156 227 m 4
 156 358 263 489 463 630 c 5
 268 780 l 6
 169 857 143 896 143 952 c 4
 143 1018 176 1081 243 1141 c 4
 309 1200 439 1270 633 1351 c 4
 651 1359 666 1362 677 1362 c 4
 693 1362 702 1354 702 1337 c 4
 702 1332 701 1326 700 1320 c 6
 682 1236 l 6
 673 1194 664 1152 655 1108 c 5
 572 1103 468 1080 343 1038 c 4
 318 1030 306 1020 306 1006 c 4
 306 990 322 969 354 944 c 6
 539 797 l 6
 597 750 626 709 626 668 c 4
 626 623 592 578 527 528 c 4
 463 479 393 415 317 337 c 4
 299 319 291 303 291 290 c 4
 291 273 306 262 336 255 c 4
 389 243 450 237 520 237 c 4
 610 237 715 247 834 267 c 5
 830 78 l 6
 830 49 817 34 793 32 c 4
 733 26 676 23 622 23 c 4
 317 23 156 94 156 227 c 4
EndSplineSet
EndChar

StartChar: uni0665
Encoding: 1637 1637 64
GlifName: afii57397
Width: 1062
VWidth: 3707
GlyphClass: 2
Flags: HW
LayerCount: 2
Fore
SplineSet
508 229 m 4
 721 229 830 310 830 471 c 4
 830 628 720 801 506 997 c 5
 313 776 217 595 217 454 c 4
 217 304 314 229 508 229 c 4
507 11 m 4
 246 11 115 155 115 442 c 4
 115 631 210 845 398 1085 c 5
 315 1147 l 5
 446 1371 l 5
 779 1059 946 759 946 470 c 4
 946 164 799 11 507 11 c 4
EndSplineSet
EndChar

StartChar: uni0666
Encoding: 1638 1638 65
GlifName: afii57398
Width: 1380
VWidth: 3370
GlyphClass: 2
Flags: HW
LayerCount: 2
Fore
SplineSet
941 1353 m 5
 954 718 1027 331 1159 191 c 5
 1048 5 l 5
 981 73 927 183 888 336 c 4
 849 491 836 763 830 1153 c 5
 729 1111 616 1090 495 1090 c 4
 390 1090 278 1105 162 1137 c 4
 133 1145 118 1227 116 1380 c 4
 116 1403 124 1410 142 1404 c 4
 273 1355 429 1330 611 1330 c 4
 713 1330 823 1337 941 1353 c 5
EndSplineSet
EndChar

StartChar: uni0667
Encoding: 1639 1639 66
GlifName: afii57399
Width: 1181
VWidth: 3371
GlyphClass: 2
Flags: HW
LayerCount: 2
Fore
SplineSet
126 1238 m 5
 218 1442 l 5
 221 1445 223 1446 226 1446 c 4
 231 1446 236 1441 241 1432 c 4
 377 1194 493 853 591 410 c 5
 683 812 808 1155 964 1438 c 4
 969 1448 973 1452 977 1452 c 4
 980 1452 982 1450 984 1444 c 6
 1066 1240 l 5
 838 838 693 427 629 6 c 5
 554 6 l 5
 492 433 356 843 126 1238 c 5
EndSplineSet
EndChar

StartChar: uni0668
Encoding: 1640 1640 67
GlifName: afii57400
Width: 1181
VWidth: 3371
GlyphClass: 2
Flags: HW
LayerCount: 2
Fore
SplineSet
126 211 m 5
 356 606 492 1017 554 1444 c 5
 629 1444 l 5
 693 1023 838 612 1066 210 c 5
 984 6 l 6
 982 0 980 -3 977 -3 c 4
 973 -3 969 2 964 12 c 4
 808 295 683 637 591 1039 c 5
 493 596 377 255 241 17 c 4
 236 8 231 3 226 3 c 4
 223 3 221 4 218 7 c 5
 126 211 l 5
EndSplineSet
EndChar

StartChar: uni0669
Encoding: 1641 1641 68
GlifName: afii57401
Width: 1057
VWidth: 3371
GlyphClass: 2
Flags: HW
LayerCount: 2
Fore
SplineSet
641 737 m 5
 557 717 487 707 422 707 c 4
 235 707 142 795 142 969 c 4
 142 1195 265 1436 438 1436 c 4
 668.983398438 1436 733.750976562 1189.22949219 751 896 c 4
 775 504 835 265 927 178 c 5
 828 3 l 5
 785 40 750 93 721 164 c 4
 676 272 649 463 641 737 c 5
243 1003 m 4
 243 919 337 900 427 900 c 4
 482 900 546 909 620 925 c 5
 602.667617199 1104.10128894 562.301688396 1224 416 1224 c 4
 309 1224 243 1108 243 1003 c 4
EndSplineSet
EndChar

StartChar: uni066A
Encoding: 1642 1642 69
GlifName: afii57381
Width: 970
VWidth: 3613
GlyphClass: 2
Flags: HW
LayerCount: 2
Fore
SplineSet
719 149 m 128
 658 149 608 199 608 260 c 128
 608 321 658 371 719 371 c 128
 780 371 830 321 830 260 c 128
 830 199 780 149 719 149 c 128
261 961 m 128
 198 961 145 1014 145 1077 c 128
 145 1140 198 1193 261 1193 c 128
 324 1193 377 1140 377 1077 c 128
 377 1014 324 961 261 961 c 128
735 1353 m 1
 862 1353 l 1
 245 0 l 1
 108 0 l 1
 735 1353 l 1
EndSplineSet
EndChar

StartChar: uni066B
Encoding: 1643 1643 70
GlifName: uni066B_
Width: 873
VWidth: 3616
GlyphClass: 2
Flags: HW
LayerCount: 2
Fore
SplineSet
639.204101562 585.09765625 m 5
 766 585 l 5
 214.8046875 -411.223632812 l 5
 85.8046875 -411.223632812 l 5
 639.204101562 585.09765625 l 5
EndSplineSet
PairPos2: "'kern' Horizontal Kerning lookup 0 subtable 6" uni06F4 dx=-110 dy=0 dh=-110 dv=0 dx=0 dy=0 dh=0 dv=0
PairPos2: "'kern' Horizontal Kerning lookup 0 subtable 6" uni06F3 dx=-130 dy=0 dh=-130 dv=0 dx=0 dy=0 dh=0 dv=0
PairPos2: "'kern' Horizontal Kerning lookup 0 subtable 6" uni06F2 dx=-130 dy=0 dh=-130 dv=0 dx=0 dy=0 dh=0 dv=0
EndChar

StartChar: uni066C
Encoding: 1644 1644 71
GlifName: uni066C_
Width: 530
VWidth: 3440
GlyphClass: 2
Flags: HW
LayerCount: 2
Fore
SplineSet
259.536132812 214.327148438 m 4
 346.860351562 214.327148438 386.98046875 162.092773438 386.98046875 67.3994140625 c 4
 386.98046875 -36.4814453125 344.875 -203.237304688 187.368164062 -302.666992188 c 4
 153.7578125 -323.884765625 91.34375 -304.122070312 127.75390625 -275.736328125 c 4
 196.237304688 -225.2890625 248 -114 248.892578125 -44.833984375 c 5
 156 -2 137.642578125 21.353515625 137.642578125 81.0830078125 c 4
 137.642578125 159.884765625 178.852539062 214.327148438 259.536132812 214.327148438 c 4
EndSplineSet
PairPos2: "'kern' Horizontal Kerning lookup 0 subtable 6" uni06F4 dx=-112 dy=0 dh=-112 dv=0 dx=0 dy=0 dh=0 dv=0
PairPos2: "'kern' Horizontal Kerning lookup 0 subtable 6" uni06F3 dx=-128 dy=0 dh=-128 dv=0 dx=0 dy=0 dh=0 dv=0
PairPos2: "'kern' Horizontal Kerning lookup 0 subtable 6" uni06F2 dx=-112 dy=0 dh=-112 dv=0 dx=0 dy=0 dh=0 dv=0
EndChar

StartChar: uni066E
Encoding: 1646 1646 72
GlifName: uni066E_
Width: 1845
VWidth: 3805
GlyphClass: 2
Flags: HW
AnchorPoint: "Anchor-10" 686.879 1289.77 basechar 0
AnchorPoint: "Anchor-7" 542.407 -219.096 basechar 0
LayerCount: 2
Fore
SplineSet
845 141 m 0
 1112 141 1610 152 1610 311 c 0
 1610 357 1567 466.125 1530 538.125 c 1
 1613 689.125 l 2
 1623 708.125 1633 708.125 1644 689.125 c 0
 1701 587.125 1735 488 1735 361 c 0
 1735 11 1269 -57 838 -57 c 0
 354 -57 110 67 110 324 c 0
 110 423 145 544 214 647 c 1
 273 624 l 1
 237 532 218 461 218 398 c 0
 218 236 429 141 845 141 c 0
EndSplineSet
Substitution2: "'fina' Terminal Forms in Arabic lookup 9 subtable" uni066E.fina
EndChar

StartChar: uni066F
Encoding: 1647 1647 73
GlifName: uni066F_
Width: 1383
VWidth: 3833
GlyphClass: 2
Flags: HW
AnchorPoint: "Anchor-10" 581.456 1182.77 basechar 0
AnchorPoint: "Anchor-7" 602.438 -689.222 basechar 0
LayerCount: 2
Fore
SplineSet
1273 124 m 4
 1273 -287.689453125 989.786132812 -469 653 -469 c 4
 291 -469 110 -330 110 -51 c 4
 110 62 141 190 204 332 c 5
 261 308 l 5
 227 191 210 104 210 36 c 4
 210 -169 358 -271 653 -271 c 4
 872 -271 1088 -192 1179 -57 c 5
 1187.44916914 5.00987114681 1186.91308594 57.580078125 1180 115 c 5
 1110 90 1043 79 966 79 c 4
 820 79 728 150 728 306 c 4
 728 538 847 710 979 710 c 4
 1216 710 1273 395 1273 124 c 4
820 337 m 4
 820 286 895 271 971 271 c 4
 1049 271 1114 285 1163 310 c 5
 1143 413 1092 524 973 524 c 4
 882 524 820 423 820 337 c 4
EndSplineSet
Substitution2: "'fina' Terminal Forms in Arabic lookup 9 subtable" uni066F.fina
EndChar

StartChar: uni0670
Encoding: 1648 1648 74
GlifName: uni0670
Width: 0
VWidth: 3021
GlyphClass: 4
Flags: HW
AnchorPoint: "Anchor-10" 768.713 1776.23 mark 0
AnchorPoint: "Anchor-9" 768.713 1776.23 mark 0
AnchorPoint: "Anchor-1" 756.758 2355.27 basemark 0
AnchorPoint: "Anchor-1" 768.713 1776.23 mark 0
LayerCount: 2
Fore
SplineSet
751.905273438 1838.15917969 m 1
 706.809570312 2198.62207031 l 5
 793 2255.26855469 l 6
 808.965820312 2264.66992188 816.948242188 2259.58105469 816.948242188 2240 c 6
 816.948242188 1859.79492188 l 1
 751.905273438 1838.15917969 l 1
EndSplineSet
EndChar

StartChar: uni0674
Encoding: 1652 1652 75
GlifName: uni0674
Width: 794
VWidth: 2798
GlyphClass: 2
Flags: HW
LayerCount: 2
Fore
SplineSet
219 2123 m 0
 219 2256 307 2370 412 2370 c 0
 490 2370 546 2327 582 2243 c 1
 560 2206 l 1
 507 2230 462 2242 426 2242 c 0
 371.720703125 2242 287 2211.81466614 287 2154 c 0
 287 2091.72029784 367.782811899 2043 450 2043 c 0
 483 2043 504 2052 551 2070 c 0
 570 2077 585 2081 595 2081 c 0
 607 2081 613 2076 613 2066 c 0
 613 2060 611 2052 606 2042 c 2
 560 1947 l 1
 447 1926 344 1877 210 1802 c 1
 231 1947 l 1
 258 1960 287 1974 314 1988 c 1
 251 2017 219 2062 219 2123 c 0
EndSplineSet
EndChar

StartChar: uni06A1
Encoding: 1697 1697 79
GlifName: uni06A_1
Width: 1753
VWidth: 3833
GlyphClass: 2
Flags: HW
AnchorPoint: "Anchor-10" 772.25 1469.37 basechar 0
AnchorPoint: "Anchor-7" 555.276 -280.135 basechar 0
LayerCount: 2
Fore
SplineSet
841 141 m 4
 1440 141 1538 171 1541 404 c 5
 1471 379 1408 368 1331 368 c 4
 1185 368 1093 439 1093 595 c 4
 1093 827 1216 999 1348 999 c 4
 1585 999 1643 674 1643 443 c 4
 1643 3.9990234375 1434 -57 838 -57 c 4
 354 -57 110 67 110 324 c 4
 110 423 145 544 214 647 c 5
 273 624 l 5
 237 532 218 461 218 398 c 4
 218 237 428 141 841 141 c 4
1185 626 m 4
 1185 575 1260 560 1336 560 c 4
 1414 560 1479 574 1528 599 c 5
 1508 702 1457 813 1338 813 c 4
 1247 813 1185 712 1185 626 c 4
EndSplineSet
Substitution2: "'init' Initial Forms in Arabic lookup 13 subtable" uni06A1.init
Substitution2: "'medi' Medial Forms in Arabic lookup 11 subtable" uni06A1.medi
Substitution2: "'fina' Terminal Forms in Arabic lookup 9 subtable" uni06A1.fina
EndChar

StartChar: uni06A9
Encoding: 1705 1705 80
GlifName: uni06A_9
Width: 1985
VWidth: 3805
GlyphClass: 2
Flags: HW
AnchorPoint: "Anchor-7" 886.157 -267.146 basechar 0
AnchorPoint: "Anchor-10" 1211.31 1452.92 basechar 0
LayerCount: 2
Fore
SplineSet
845 141 m 4
 1236 141 1639 215 1639 387 c 0
 1639 498 1332 793 1078 975 c 0
 1058.45703125 989.002929688 1052 1008 1052 1022 c 1
 1093 1154 l 2
 1096 1166 1102 1174 1110 1177 c 2
 1906 1513 l 2
 1920 1519 1927 1515 1925 1502 c 2
 1899 1352 l 1
 1218 1067 l 1
 1573 813 1736 563 1736 392 c 0
 1736 75 1279 -57 838 -57 c 4
 354 -57 110 67 110 324 c 4
 110 423 145 544 214 647 c 5
 273 624 l 5
 237 532 218 461 218 398 c 4
 218 236 429 141 845 141 c 4
EndSplineSet
Substitution2: "'init' Initial Forms in Arabic lookup 13 subtable" uniFB90
Substitution2: "'medi' Medial Forms in Arabic lookup 11 subtable" uniFB91
Substitution2: "'fina' Terminal Forms in Arabic lookup 9 subtable" uniFB8F
EndChar

StartChar: uni06AF
Encoding: 1711 1711 81
GlifName: uni06A_F_
Width: 2005
VWidth: 3805
GlyphClass: 2
Flags: HW
AnchorPoint: "Anchor-7" 886.157 -267.146 basechar 0
AnchorPoint: "Anchor-10" 1336.95 1586.92 basechar 0
LayerCount: 2
Fore
SplineSet
1218 977 m 1
 1575 729 1734 546.590820312 1734 393 c 0
 1734 68.4951171875 1272.33203125 -57 838.004882812 -57 c 0
 354.00390625 -56.9990234375 110 66.9970703125 110 324 c 0
 110 423 145 544 214 647 c 1
 273 624 l 1
 237 532 218 461 218 398 c 0
 218 236 429 141 845 141 c 0
 1231.61230469 141 1636 214.102539062 1636 377 c 0
 1636 493.224609375 1224 791 1077 885 c 0
 1058.44628906 896.864257812 1052 914 1052 932 c 0
 1093 1064 l 2
 1096.49609375 1075.85351562 1102 1084 1110 1087 c 2
 1906 1423 l 2
 1920 1429 1927 1425 1925 1412 c 2
 1899 1262 l 1
 1218 977 l 1
EndSplineSet
Refer: 272 -1 S 1.1342 0 0 1.1342 1045 -777 2
Substitution2: "'fina' Terminal Forms in Arabic lookup 9 subtable" uniFB93
Substitution2: "'medi' Medial Forms in Arabic lookup 11 subtable" uniFB95
Substitution2: "'init' Initial Forms in Arabic lookup 13 subtable" uniFB94
EndChar

StartChar: uni06BA
Encoding: 1722 1722 82
GlifName: afii57514
Width: 1380
VWidth: 3805
GlyphClass: 2
Flags: HW
LayerCount: 2
Fore
SplineSet
658 -293 m 4
 875 -293 1090 -212 1182 -81 c 5
 1178 13 1118 179 1010 378 c 5
 1094 513 l 6
 1109 537 1123 537 1137 513 c 4
 1206 393 1270 220 1270 44 c 4
 1270 -302 989 -491 653 -491 c 4
 291 -491 110 -352 110 -73 c 4
 110 69 154 196 204 310 c 5
 261 286 l 5
 227 169 210 82 210 14 c 4
 210 -191 359 -293 658 -293 c 4
EndSplineSet
Substitution2: "'fina' Terminal Forms in Arabic lookup 9 subtable" uniFB9F
EndChar

StartChar: uni06F0
Encoding: 1776 1776 85
GlifName: uni06F_0
Width: 895
VWidth: 3370
GlyphClass: 2
Flags: HW
LayerCount: 2
Fore
SplineSet
322 544 m 4
 322 475 378 419 447 419 c 4
 516 419 572 475 572 544 c 4
 572 613 516 669 447 669 c 4
 378 669 322 613 322 544 c 4
195 544 m 4
 195 683 308 796 447 796 c 4
 586 796 699 683 699 544 c 4
 699 405 586 292 447 292 c 4
 308 292 195 405 195 544 c 4
EndSplineSet
PairPos2: "'kern' Horizontal Kerning lookup 0 subtable 6" uni06F8 dx=-40 dy=0 dh=-40 dv=0 dx=0 dy=0 dh=0 dv=0
PairPos2: "'kern' Horizontal Kerning lookup 0 subtable 6" uni06F7 dx=-40 dy=0 dh=-40 dv=0 dx=0 dy=0 dh=0 dv=0
PairPos2: "'kern' Horizontal Kerning lookup 0 subtable 6" uni06F6 dx=-40 dy=0 dh=-40 dv=0 dx=0 dy=0 dh=0 dv=0
PairPos2: "'kern' Horizontal Kerning lookup 0 subtable 6" uni06F4 dx=-40 dy=0 dh=-40 dv=0 dx=0 dy=0 dh=0 dv=0
PairPos2: "'kern' Horizontal Kerning lookup 0 subtable 6" uni06F3 dx=-40 dy=0 dh=-40 dv=0 dx=0 dy=0 dh=0 dv=0
PairPos2: "'kern' Horizontal Kerning lookup 0 subtable 6" uni06F2 dx=-40 dy=0 dh=-40 dv=0 dx=0 dy=0 dh=0 dv=0
EndChar

StartChar: uni06F4
Encoding: 1780 1780 89
GlifName: uni06F_4
Width: 1187
VWidth: 3081
GlyphClass: 2
Flags: HW
LayerCount: 2
Fore
SplineSet
816 1256 m 0
 702 1256 619 1178 619 1076 c 0
 619 1020 644 986 692 972 c 0
 730 961 770 956 813 956 c 0
 880 956 953 968 1033 993 c 1
 1059 942 l 1
 968 838 873 786 773 786 c 0
 633 786 524 837 446 933 c 1
 498 696 524 468 524 252 c 0
 524 100 499 14 445 3 c 1
 445 363 344 794 142 1284 c 1
 248 1427 l 2
 260.866529904 1444.35767713 276.354492188 1449.52636719 286 1423 c 2
 350 1230 l 2
 375.480626176 1153.15998669 433 1094 524 1054 c 1
 516 1081 512 1109 512 1137 c 0
 512 1307 626 1423 776 1423 c 0
 884 1423 957 1365 996 1250 c 1
 974 1222 l 1
 914 1245 862 1256 816 1256 c 0
EndSplineSet
PairPos2: "'kern' Horizontal Kerning lookup 0 subtable 6" uni06F8 dx=-70 dy=0 dh=-70 dv=0 dx=0 dy=0 dh=0 dv=0
PairPos2: "'kern' Horizontal Kerning lookup 0 subtable 6" uni06F5 dx=-70 dy=0 dh=-70 dv=0 dx=0 dy=0 dh=0 dv=0
EndChar

StartChar: uni06F5
Encoding: 1781 1781 90
GlifName: uni06F_5
Width: 1133
VWidth: 3160
GlyphClass: 2
Flags: HW
LayerCount: 2
Fore
SplineSet
311 197 m 4
 439 197 494 288 539 468 c 5
 591 466 l 5
 622 331 673 197 810 197 c 4
 893 197 934 240 934 327 c 4
 934 588 727 877 527 1083 c 5
 420 922 190 511 190 326 c 4
 190 242 229 197 311 197 c 4
302 3 m 4
 164 3 92 107 92 310 c 4
 92 525 266 895 441 1182 c 5
 404 1215 l 5
 491 1384 l 6
 502 1405 518 1406 537 1386 c 4
 853 1055 1039 685 1039 332 c 4
 1039 113 966 3 820 3 c 4
 706 3 622 70 567 203 c 5
 518 70 429 3 302 3 c 4
EndSplineSet
PairPos2: "'kern' Horizontal Kerning lookup 0 subtable 6" uni06F0 dx=-30 dy=0 dh=-30 dv=0 dx=0 dy=0 dh=0 dv=0
PairPos2: "'kern' Horizontal Kerning lookup 0 subtable 6" uni06F7 dx=-70 dy=0 dh=-70 dv=0 dx=0 dy=0 dh=0 dv=0
PairPos2: "'kern' Horizontal Kerning lookup 0 subtable 6" uni06F6 dx=-70 dy=0 dh=-70 dv=0 dx=0 dy=0 dh=0 dv=0
PairPos2: "'kern' Horizontal Kerning lookup 0 subtable 6" uni06F4 dx=-70 dy=0 dh=-70 dv=0 dx=0 dy=0 dh=0 dv=0
PairPos2: "'kern' Horizontal Kerning lookup 0 subtable 6" uni06F3 dx=-100 dy=0 dh=-100 dv=0 dx=0 dy=0 dh=0 dv=0
PairPos2: "'kern' Horizontal Kerning lookup 0 subtable 6" uni06F2 dx=-100 dy=0 dh=-100 dv=0 dx=0 dy=0 dh=0 dv=0
EndChar

StartChar: uni06F6
Encoding: 1782 1782 91
GlifName: uni06F_6
Width: 1075
VWidth: 3371
GlyphClass: 2
Flags: HW
LayerCount: 2
Fore
SplineSet
775 1226 m 5
 680 1251 610 1263 560 1263 c 4
 445 1263 290 1139 290 1049 c 4
 290 980 463 922 630 922 c 4
 682 922 706 925 758 947 c 4
 818 972 878 996 910 1008 c 4
 965 1029 973 1012 954 959 c 6
 908 833 l 5
 641 721 397 443 176 -2 c 5
 49 119 398 641 490 728 c 5
 286 779 184 887 184 1050 c 4
 184 1230 356 1455 550 1455 c 4
 671 1455 759 1395 815 1273 c 5
 775 1226 l 5
EndSplineSet
EndChar

StartChar: uniFB8F
Encoding: 64399 64399 106
GlifName: uniF_B_8F_
Width: 2278
VWidth: 3805
GlyphClass: 2
Flags: HW
AnchorPoint: "Anchor-7" 886.157 -267.146 basechar 0
AnchorPoint: "Anchor-10" 1195.31 1454.92 basechar 0
LayerCount: 2
Fore
SplineSet
1093 1155 m 2
 1097 1168 1104 1174 1111 1177 c 2
 1907 1513 l 2
 1921 1519 1928 1515 1926 1502 c 2
 1900 1352 l 1
 1219 1067 l 1
 1446 855 1628 669 1783 490 c 0
 1968.24902344 276.067382812 2114 199 2261 199 c 2
 2284 199 l 2
 2310 199 2313 167 2313 102 c 6
 2313 95 l 6
 2313 32 2310 0 2284 0 c 2
 2262 0 l 2
 2059 0 1909 84 1731 331 c 1
 1662 63 1280 -56 838 -56 c 0
 354 -56 110 68 110 325 c 0
 110 424 145 545 214 648 c 1
 273 625 l 1
 237 533 218 462 218 399 c 0
 218 237 429 142 845 142 c 0
 1236 142 1639 216 1639 388 c 0
 1639 489 1205 848 1078 976 c 0
 1061 993 1052 1009 1052 1023 c 1
 1093 1155 l 2
EndSplineSet
EndChar

StartChar: uniFB93
Encoding: 64403 64403 110
GlifName: uniF_B_93
Width: 2201
VWidth: 3805
GlyphClass: 2
Flags: HW
AnchorPoint: "Anchor-7" 886.157 -267.146 basechar 0
AnchorPoint: "Anchor-10" 1317.01 1561.92 basechar 0
LayerCount: 2
Fore
SplineSet
1218 978 m 1
 1431 820 1600 682 1759 483 c 0
 1922 279 2054 200 2183 199 c 2
 2207 199 l 2
 2230 199 2236 167 2236 102 c 6
 2236 95 l 6
 2236 32 2233 0 2207 0 c 2
 2184 0 l 2
 2025 0 1891 108 1727 311 c 1
 1655 61 1264 -57 838 -57 c 0
 354 -57 110 67 110 324 c 0
 110 423 145 544 214 647 c 1
 273 624 l 1
 237 532 218 461 218 398 c 0
 218 236 429 141 845 141 c 0
 1232 141 1639 207 1639 390 c 0
 1639 486 1163 829 1077 885 c 0
 1059 897 1052 914 1052 932 c 0
 1093 1064 l 2
 1096 1076 1102 1084 1110 1087 c 2
 1906 1423 l 2
 1920 1429 1927 1425 1925 1412 c 2
 1899 1262 l 1
 1218 978 l 1
EndSplineSet
Refer: 272 -1 N 1.1342 0 0 1.1342 1045 -777 2
EndChar

StartChar: uniFB94
Encoding: 64404 64404 111
GlifName: uniF_B_94
Width: 955
VWidth: 3805
GlyphClass: 2
Flags: HW
AnchorPoint: "Anchor-7" 314.687 -250.871 basechar 0
AnchorPoint: "Anchor-10" 290.851 1565.67 basechar 0
LayerCount: 2
Fore
SplineSet
-5 199 m 6
 138 199 l 2
 342 199 608 235.750976562 608 378 c 0
 608 510.279296875 194 796 51 890 c 0
 32.6728515625 902.046875 26 922 25.5732421875 935.93359375 c 0
 25.5732421875 946.564453125 43.873046875 993.877929688 65.8408203125 1066.0859375 c 0
 69.14453125 1078.19726562 74.8310546875 1085.95507812 82.9013671875 1089.35742188 c 2
 878.9296875 1425.00585938 l 2
 893.299804688 1431.13964844 899.439453125 1427.49609375 897.349609375 1414.07519531 c 2
 871.337890625 1264.06152344 l 1
 191.112304688 978.733398438 l 1
 548.112304688 736.733398438 702 556 702 392 c 0
 702 173 519 0 138 0 c 2
 -5 0 l 6
 -48 0 -50 32 -50 94 c 6
 -50 104 l 6
 -50 167 -47 199 -5 199 c 6
EndSplineSet
Refer: 272 -1 N 1.1342 0 0 1.1342 17 -777 2
EndChar

StartChar: uniFB95
Encoding: 64405 64405 112
GlifName: uniF_B_95
Width: 1174
VWidth: 3805
GlyphClass: 2
Flags: HW
AnchorPoint: "Anchor-10" 290.851 1565.67 basechar 0
AnchorPoint: "Anchor-7" 314.687 -250.871 basechar 0
LayerCount: 2
Fore
SplineSet
-5 199 m 2
 138 199 l 2
 342 199 607 235.750976562 607 378 c 0
 607 510.279296875 135.043945312 822.119140625 51 890 c 0
 35 905 27 921 25.5732421875 935.93359375 c 0
 25.5732421875 946.564453125 43.873046875 993.877929688 65.8408203125 1066.0859375 c 0
 69.14453125 1078.19726562 74.8310546875 1085.95507812 82.9013671875 1089.35742188 c 2
 878.9296875 1425.00585938 l 2
 893.299804688 1431.13964844 899.439453125 1427.49609375 897.349609375 1414.07519531 c 2
 871.337890625 1264.06152344 l 1
 191.112304688 978.733398438 l 1
 404.112304688 820.733398438 579 684 738 485 c 0
 901.387695312 280.508789062 1035 199 1156 199 c 2
 1179 199 l 2
 1205 199 1209 167 1209 102 c 6
 1209 95 l 6
 1209 32 1205 0 1179 0 c 2
 1156 0 l 2
 1006 0 848 122 685 325 c 1
 671 172 519 0 138 0 c 2
 -5 0 l 2
 -48 0 -50 32 -50 94 c 2
 -50 104 l 2
 -50 167 -47 199 -5 199 c 2
EndSplineSet
Refer: 272 -1 N 1.1342 0 0 1.1342 17 -777 2
EndChar

StartChar: uniFB9F
Encoding: 64415 64415 114
GlifName: uniF_B_9F_
Width: 1479
VWidth: 3805
GlyphClass: 2
Flags: HW
AnchorPoint: "Anchor-10" 564.681 1020.29 basechar 0
AnchorPoint: "Anchor-7" 437.809 -1027.56 basechar 0
LayerCount: 2
Fore
SplineSet
1210 269 m 16
 1238 225 1321 202 1462 200 c 2
 1485 199 l 2
 1511 198 1513 166 1513 102 c 6
 1513 95 l 6
 1513 32 1511 0 1485 0 c 2
 1452 0 l 2
 1360 0 1312 21 1263 61 c 1
 1269 21 1271 -18 1271 -55 c 0
 1271 -407 995 -599 653 -599 c 0
 291 -599 110 -460 110 -181 c 0
 110 -68 141 60 204 202 c 1
 261 178 l 1
 227 61 210 -26 210 -94 c 0
 210 -299 360 -401 659 -401 c 0
 875 -401 1088 -319 1181 -187 c 1
 1177 -93 1118 72 1010 270 c 1
 1094 404 l 2
 1110 429 1124 430 1137 405 c 0
 1171 339 1195 294 1210 269 c 16
EndSplineSet
EndChar

StartChar: uniFBE8
Encoding: 64488 64488 117
GlifName: uniF_B_E_8
Width: 669
VWidth: 3804
GlyphClass: 2
Flags: HW
AnchorPoint: "Anchor-10" 328.669 1291.79 basechar 0
AnchorPoint: "Anchor-7" 356.746 -264.901 basechar 0
LayerCount: 2
Fore
SplineSet
-5 199 m 2
 159 199 l 2
 354 199 440 219 440 285 c 4
 440 343 388 466 354 538 c 5
 435 688 l 6
 447 710 457 712 466 695 c 4
 534 567 559 471 559 349 c 4
 559 136 429 -3.26980695372e-14 162 0 c 2
 -5 0 l 2
 -48 0 -50 32 -50 94 c 2
 -50 104 l 2
 -50 167 -47 199 -5 199 c 2
EndSplineSet
EndChar

StartChar: uniFBE9
Encoding: 64489 64489 118
GlifName: uniF_B_E_9
Width: 793
VWidth: 3804
GlyphClass: 2
Flags: HW
AnchorPoint: "Anchor-10" 403.594 1177.75 basechar 0
AnchorPoint: "Anchor-7" 377.531 -223.18 basechar 0
LayerCount: 2
Fore
SplineSet
-5 199 m 2
 122 199 l 2
 367 199 461 265 465 396 c 2
 468 490 l 1
 548 490 l 1
 553 399 l 2
 560 266 624 199 776 199 c 2
 798 199 l 2
 824 199 828 167 828 102 c 6
 828 95 l 6
 828 32 824 0 798 0 c 2
 776 0 l 2
 652 0 574 53 513 158 c 1
 441 53 302 0 126 0 c 2
 -5 0 l 2
 -48 0 -50 32 -50 94 c 2
 -50 104 l 2
 -50 167 -47 199 -5 199 c 2
EndSplineSet
EndChar

StartChar: uniFE73
Encoding: 65139 65139 126
GlifName: uniF_E_73
Width: 785
GlyphClass: 2
Flags: HW
AnchorPoint: "Anchor-10" 369 1242 basechar 0
AnchorPoint: "Anchor-7" 377 -188 basechar 0
LayerCount: 2
Fore
SplineSet
309 464 m 2
 309 275 439 180 699 180 c 2
 790 180 l 1
 790 3 l 1
 686 3 l 2
 296 3 101 150 101 444 c 2
 101 481 l 1
 309 481 l 1
 309 464 l 2
EndSplineSet
EndChar

StartChar: uniFE8E
Encoding: 65166 65166 152
GlifName: uniF_E_8E_
Width: 538
VWidth: 3764
GlyphClass: 2
Flags: HW
AnchorPoint: "Anchor-10" 187.76 1630.01 basechar 0
AnchorPoint: "Anchor-7" 275.139 -234.32 basechar 0
LayerCount: 2
Fore
SplineSet
522 199 m 2
 543 199 l 2
 569 199 573 167 573 102 c 6
 573 95 l 6
 573 32 569 0 543 0 c 2
 523 0 l 2
 221.779215173 0 192.780273438 142.668945312 181 529 c 0
 171.825761562 829.866803335 162 1107 128 1389 c 1
 242 1511 l 2
 269.377929688 1539.18359375 283.40457778 1537.77717327 285 1488 c 4
 295 1176 300.07038833 929.747222437 301 617 c 4
 301.952251166 296.636221308 297.096982466 199 522 199 c 2
EndSplineSet
EndChar

StartChar: uniFEA2
Encoding: 65186 65186 172
GlifName: uniF_E_A_2
Width: 1332
VWidth: 3798
GlyphClass: 2
Flags: HW
AnchorPoint: "Anchor-10" 597.798 1120.94 basechar 0
AnchorPoint: "Anchor-7" 639.792 -826.821 basechar 0
LayerCount: 2
Fore
SplineSet
975 453.552734375 m 1
 985 266.552734375 1079 199 1288 199 c 2
 1337 199 l 2
 1363 199 1376 167 1376 102 c 2
 1376 95 l 2
 1376 32 1363 0 1337 0 c 2
 1288 0 l 2
 1035 0 895.948242188 130.998046875 884 393 c 2
 882 436.85546875 l 1
 512.510742188 359.436523438 202 158.197265625 202 -152 c 0
 202 -395.1640625 494.240234375 -453 762 -453 c 0
 905 -453 1057 -438 1192 -422 c 1
 1192 -423 1193 -424 1193 -425 c 0
 1193 -429 1190 -436 1186 -446 c 0
 1122 -579 978 -636 752 -636 c 0
 352.541992188 -636 108 -496.14453125 108 -157 c 0
 108 252.3515625 427.580078125 507.139648438 776 567 c 1
 629.959960938 596.770507812 457.951171875 647 368 647 c 0
 294 647 224 608 159 527 c 1
 100 563 l 1
 172.90234375 741.663085938 264.735351562 833 388 833 c 0
 440 831 633 781 968 684 c 0
 1035 664 1110 653 1194 652 c 0
 1203 652 1208 650 1208 645 c 0
 1208 644 1208 642 1207 640 c 2
 1135 470 l 1
 1081.37988281 466.9921875 1027.81640625 461.49609375 975 453.552734375 c 1
EndSplineSet
EndChar

StartChar: uniFEA3
Encoding: 65187 65187 173
GlifName: uniF_E_A_3
Width: 1472
VWidth: 3805
GlyphClass: 2
Flags: HW
AnchorPoint: "Anchor-10" 574.444 1175.68 basechar 0
AnchorPoint: "Anchor-7" 552.039 -210.817 basechar 0
LayerCount: 2
Fore
SplineSet
-5 199 m 6
 71 199 l 2
 290 199 477 241 670 325 c 2
 953 448 l 1
 782.297817326 512.021300452 557.226093395 602 466 602 c 0
 361 602 274 557 203 469 c 1
 143 506 l 1
 234 701 346 793 482 793 c 0
 710.375 793 974.70703125 548.940429688 1371 544 c 0
 1390.99804688 543.750976562 1397 535 1386 515 c 2
 1308 374 l 1
 1229 374 l 2
 933 374 630 0 71 0 c 2
 -5 0 l 6
 -48 0 -50 32 -50 94 c 6
 -50 104 l 6
 -50 167 -47 199 -5 199 c 6
EndSplineSet
EndChar

StartChar: uniFEA4
Encoding: 65188 65188 174
GlifName: uniF_E_A_4
Width: 1510
VWidth: 3805
GlyphClass: 2
Flags: HW
AnchorPoint: "Anchor-7" 552.039 -210.817 basechar 0
AnchorPoint: "Anchor-10" 574.444 1175.68 basechar 0
LayerCount: 2
Fore
SplineSet
-5 199 m 2
 71 199 l 2
 290 199 477 241 670 325 c 2
 953 448 l 1
 782 512 557 602 466 602 c 0
 361 602 274 557 203 469 c 1
 143 506 l 1
 234 701 346 793 482 793 c 0
 710 793 975 549 1371 544 c 0
 1391 544 1397 535 1386 515 c 2
 1308 374 l 1
 1229 374 l 2
 1177 374 1125 363 1072 344 c 1
 1072 247 1141 199 1307 199 c 2
 1515 199 l 2
 1541 199 1545 167 1545 102 c 6
 1545 95 l 6
 1545 32 1541 0 1515 0 c 2
 1307 0 l 2
 1074 0 972 93 971 302 c 1
 740 193 467 0 71 0 c 2
 -5 0 l 2
 -48 0 -50 32 -50 94 c 2
 -50 104 l 2
 -50 167 -47 199 -5 199 c 2
EndSplineSet
EndChar

StartChar: uniFEAA
Encoding: 65194 65194 180
GlifName: uniF_E_A_A_
Width: 1179
VWidth: 3796
GlyphClass: 2
Flags: HW
AnchorPoint: "Anchor-7" 470.662 -216.64 basechar 0
AnchorPoint: "Anchor-10" 667.225 1254.18 basechar 0
LayerCount: 2
Fore
SplineSet
1159 0 m 2
 1000 0 904 79 836 237 c 1
 755 96 l 1
 669 32 556 0 414 0 c 0
 211 0 110 86 110 258 c 0
 110 294 117 341 132 403 c 1
 188 393 l 1
 186 379 185 366 185 354 c 0
 185 244 264 203 433 203 c 0
 611 203 773 220 773 339 c 0
 773 354 772 371 767 388 c 2
 596 860 l 1
 674 972 l 2
 684 986 692 994 699 994 c 0
 706 994 712 984 716 967 c 2
 891 433 l 2
 945.461914062 266.813476562 987 199 1159 199 c 2
 1184 199 l 2
 1210 199 1214 167 1214 102 c 6
 1214 95 l 6
 1214 32 1210 0 1184 0 c 2
 1159 0 l 2
EndSplineSet
PairPos2: "'kern' Horizontal Kerning lookup 0 subtable 4" uniFB90 dx=-120 dy=0 dh=-120 dv=0 dx=0 dy=0 dh=0 dv=0
PairPos2: "'kern' Horizontal Kerning lookup 0 subtable 4" uni06A9 dx=-120 dy=0 dh=-120 dv=0 dx=0 dy=0 dh=0 dv=0
PairPos2: "'kern' Horizontal Kerning lookup 0 subtable 4" uniFB94 dx=-120 dy=0 dh=-120 dv=0 dx=0 dy=0 dh=0 dv=0
PairPos2: "'kern' Horizontal Kerning lookup 0 subtable 4" uni06AF dx=-120 dy=0 dh=-120 dv=0 dx=0 dy=0 dh=0 dv=0
EndChar

StartChar: uniFEAE
Encoding: 65198 65198 184
GlifName: uniF_E_A_E_
Width: 882
VWidth: 3804
GlyphClass: 2
Flags: HW
AnchorPoint: "Anchor-7" 341.096 -713.978 basechar 0
AnchorPoint: "Anchor-10" 530.105 897.34 basechar 0
LayerCount: 2
Fore
SplineSet
862 0 m 2
 772 0 727 17 689 51 c 1
 688 -175 432 -544 241 -544 c 0
 185 -544 133 -532 59 -510 c 0
 22 -499 -1 -487 -8 -474 c 0
 -13 -465 -10 -458 2 -455 c 0
 384 -359 594 -101 594 53 c 0
 594 112 555 178 481 262 c 1
 499 296 526 354 565 437 c 0
 572 453 582 451 594 432 c 0
 618 391 649 330 677 284 c 0
 711 227 760 199 862 199 c 2
 887 199 l 2
 913 199 917 167 917 102 c 6
 917 95 l 6
 917 32 913 0 887 0 c 2
 862 0 l 2
EndSplineSet
PairPos2: "'kern' Horizontal Kerning lookup 0 subtable 3" uni06C0 dx=-128 dy=0 dh=-128 dv=0 dx=0 dy=0 dh=0 dv=0
PairPos2: "'kern' Horizontal Kerning lookup 0 subtable 3" uni0621 dx=-128 dy=0 dh=-128 dv=0 dx=0 dy=0 dh=0 dv=0
PairPos2: "'kern' Horizontal Kerning lookup 0 subtable 2" uni0648 dx=-43 dy=0 dh=-43 dv=0 dx=0 dy=0 dh=0 dv=0
PairPos2: "'kern' Horizontal Kerning lookup 0 subtable 0" uniFB58 dx=20 dy=0 dh=20 dv=0 dx=0 dy=0 dh=0 dv=0
PairPos2: "'kern' Horizontal Kerning lookup 0 subtable 0" uni0644 dx=-43 dy=0 dh=-43 dv=0 dx=0 dy=0 dh=0 dv=0
PairPos2: "'kern' Horizontal Kerning lookup 0 subtable 0" uni0642 dx=-43 dy=0 dh=-43 dv=0 dx=0 dy=0 dh=0 dv=0
PairPos2: "'kern' Horizontal Kerning lookup 0 subtable 0" uni0632 dx=-43 dy=0 dh=-43 dv=0 dx=0 dy=0 dh=0 dv=0
PairPos2: "'kern' Horizontal Kerning lookup 0 subtable 0" uni0631 dx=-43 dy=0 dh=-43 dv=0 dx=0 dy=0 dh=0 dv=0
PairPos2: "'kern' Horizontal Kerning lookup 0 subtable 0" uniFB8A dx=-43 dy=0 dh=-43 dv=0 dx=0 dy=0 dh=0 dv=0
PairPos2: "'kern' Horizontal Kerning lookup 0 subtable 0" uni0698 dx=-43 dy=0 dh=-43 dv=0 dx=0 dy=0 dh=0 dv=0
PairPos2: "'kern' Horizontal Kerning lookup 0 subtable 0" uniFB7C dx=-148 dy=0 dh=-148 dv=0 dx=0 dy=0 dh=0 dv=0
PairPos2: "'kern' Horizontal Kerning lookup 0 subtable 0" uni06CC dx=-43 dy=0 dh=-43 dv=0 dx=0 dy=0 dh=0 dv=0
PairPos2: "'kern' Horizontal Kerning lookup 0 subtable 0" uniFEEB dx=-148 dy=0 dh=-148 dv=0 dx=0 dy=0 dh=0 dv=0
PairPos2: "'kern' Horizontal Kerning lookup 0 subtable 0" uniFEDF dx=-148 dy=0 dh=-148 dv=0 dx=0 dy=0 dh=0 dv=0
PairPos2: "'kern' Horizontal Kerning lookup 0 subtable 0" uniFB90 dx=-213 dy=0 dh=-213 dv=0 dx=0 dy=0 dh=0 dv=0
PairPos2: "'kern' Horizontal Kerning lookup 0 subtable 0" uni06A9 dx=-213 dy=0 dh=-213 dv=0 dx=0 dy=0 dh=0 dv=0
PairPos2: "'kern' Horizontal Kerning lookup 0 subtable 0" uni0649 dx=-43 dy=0 dh=-43 dv=0 dx=0 dy=0 dh=0 dv=0
PairPos2: "'kern' Horizontal Kerning lookup 0 subtable 0" uni0647 dx=-148 dy=0 dh=-148 dv=0 dx=0 dy=0 dh=0 dv=0
PairPos2: "'kern' Horizontal Kerning lookup 0 subtable 0" uniFEE7 dx=-148 dy=0 dh=-148 dv=0 dx=0 dy=0 dh=0 dv=0
PairPos2: "'kern' Horizontal Kerning lookup 0 subtable 0" uniFEE3 dx=-148 dy=0 dh=-148 dv=0 dx=0 dy=0 dh=0 dv=0
PairPos2: "'kern' Horizontal Kerning lookup 0 subtable 0" uni0645 dx=-148 dy=0 dh=-148 dv=0 dx=0 dy=0 dh=0 dv=0
PairPos2: "'kern' Horizontal Kerning lookup 0 subtable 0" uniFEDB dx=-213 dy=0 dh=-213 dv=0 dx=0 dy=0 dh=0 dv=0
PairPos2: "'kern' Horizontal Kerning lookup 0 subtable 0" uniFED7 dx=-148 dy=0 dh=-148 dv=0 dx=0 dy=0 dh=0 dv=0
PairPos2: "'kern' Horizontal Kerning lookup 0 subtable 0" uniFED3 dx=-148 dy=0 dh=-148 dv=0 dx=0 dy=0 dh=0 dv=0
PairPos2: "'kern' Horizontal Kerning lookup 0 subtable 0" uni0641 dx=-148 dy=0 dh=-148 dv=0 dx=0 dy=0 dh=0 dv=0
PairPos2: "'kern' Horizontal Kerning lookup 0 subtable 0" uniFECF dx=-148 dy=0 dh=-148 dv=0 dx=0 dy=0 dh=0 dv=0
PairPos2: "'kern' Horizontal Kerning lookup 0 subtable 0" uniFECB dx=-148 dy=0 dh=-148 dv=0 dx=0 dy=0 dh=0 dv=0
PairPos2: "'kern' Horizontal Kerning lookup 0 subtable 0" uniFEC7 dx=-148 dy=0 dh=-148 dv=0 dx=0 dy=0 dh=0 dv=0
PairPos2: "'kern' Horizontal Kerning lookup 0 subtable 0" uni0638 dx=-148 dy=0 dh=-148 dv=0 dx=0 dy=0 dh=0 dv=0
PairPos2: "'kern' Horizontal Kerning lookup 0 subtable 0" uniFEC3 dx=-148 dy=0 dh=-148 dv=0 dx=0 dy=0 dh=0 dv=0
PairPos2: "'kern' Horizontal Kerning lookup 0 subtable 0" uni0637 dx=-148 dy=0 dh=-148 dv=0 dx=0 dy=0 dh=0 dv=0
PairPos2: "'kern' Horizontal Kerning lookup 0 subtable 0" uniFEBF dx=-148 dy=0 dh=-148 dv=0 dx=0 dy=0 dh=0 dv=0
PairPos2: "'kern' Horizontal Kerning lookup 0 subtable 0" uni0636 dx=-148 dy=0 dh=-148 dv=0 dx=0 dy=0 dh=0 dv=0
PairPos2: "'kern' Horizontal Kerning lookup 0 subtable 0" uniFEBB dx=-148 dy=0 dh=-148 dv=0 dx=0 dy=0 dh=0 dv=0
PairPos2: "'kern' Horizontal Kerning lookup 0 subtable 0" uni0635 dx=-148 dy=0 dh=-148 dv=0 dx=0 dy=0 dh=0 dv=0
PairPos2: "'kern' Horizontal Kerning lookup 0 subtable 0" uniFEB7 dx=-148 dy=0 dh=-148 dv=0 dx=0 dy=0 dh=0 dv=0
PairPos2: "'kern' Horizontal Kerning lookup 0 subtable 0" uni0634 dx=-148 dy=0 dh=-148 dv=0 dx=0 dy=0 dh=0 dv=0
PairPos2: "'kern' Horizontal Kerning lookup 0 subtable 0" uniFEB3 dx=-148 dy=0 dh=-148 dv=0 dx=0 dy=0 dh=0 dv=0
PairPos2: "'kern' Horizontal Kerning lookup 0 subtable 0" uni0633 dx=-148 dy=0 dh=-148 dv=0 dx=0 dy=0 dh=0 dv=0
PairPos2: "'kern' Horizontal Kerning lookup 0 subtable 0" uni0630 dx=-148 dy=0 dh=-148 dv=0 dx=0 dy=0 dh=0 dv=0
PairPos2: "'kern' Horizontal Kerning lookup 0 subtable 0" uni062F dx=-148 dy=0 dh=-148 dv=0 dx=0 dy=0 dh=0 dv=0
PairPos2: "'kern' Horizontal Kerning lookup 0 subtable 0" uniFEA7 dx=-148 dy=0 dh=-148 dv=0 dx=0 dy=0 dh=0 dv=0
PairPos2: "'kern' Horizontal Kerning lookup 0 subtable 0" uniFEA3 dx=-148 dy=0 dh=-148 dv=0 dx=0 dy=0 dh=0 dv=0
PairPos2: "'kern' Horizontal Kerning lookup 0 subtable 0" uniFE9F dx=-148 dy=0 dh=-148 dv=0 dx=0 dy=0 dh=0 dv=0
PairPos2: "'kern' Horizontal Kerning lookup 0 subtable 0" uniFE9B dx=-148 dy=0 dh=-148 dv=0 dx=0 dy=0 dh=0 dv=0
PairPos2: "'kern' Horizontal Kerning lookup 0 subtable 0" uni062B dx=-148 dy=0 dh=-148 dv=0 dx=0 dy=0 dh=0 dv=0
PairPos2: "'kern' Horizontal Kerning lookup 0 subtable 0" uniFE97 dx=-148 dy=0 dh=-148 dv=0 dx=0 dy=0 dh=0 dv=0
PairPos2: "'kern' Horizontal Kerning lookup 0 subtable 0" uni062A dx=-148 dy=0 dh=-148 dv=0 dx=0 dy=0 dh=0 dv=0
PairPos2: "'kern' Horizontal Kerning lookup 0 subtable 0" uni0629 dx=-148 dy=0 dh=-148 dv=0 dx=0 dy=0 dh=0 dv=0
PairPos2: "'kern' Horizontal Kerning lookup 0 subtable 0" uni0628 dx=-148 dy=0 dh=-148 dv=0 dx=0 dy=0 dh=0 dv=0
PairPos2: "'kern' Horizontal Kerning lookup 0 subtable 0" uni0627 dx=-148 dy=0 dh=-148 dv=0 dx=0 dy=0 dh=0 dv=0
PairPos2: "'kern' Horizontal Kerning lookup 0 subtable 0" uni0622 dx=-148 dy=0 dh=-148 dv=0 dx=0 dy=0 dh=0 dv=0
PairPos2: "'kern' Horizontal Kerning lookup 0 subtable 0" uniFB94 dx=-235 dy=0 dh=-235 dv=0 dx=0 dy=0 dh=0 dv=0
PairPos2: "'kern' Horizontal Kerning lookup 0 subtable 0" uni06AF dx=-235 dy=0 dh=-235 dv=0 dx=0 dy=0 dh=0 dv=0
PairPos2: "'kern' Horizontal Kerning lookup 0 subtable 0" uniFB56 dx=-148 dy=0 dh=-148 dv=0 dx=0 dy=0 dh=0 dv=0
PairPos2: "'kern' Horizontal Kerning lookup 0 subtable 0" uni067E dx=-148 dy=0 dh=-148 dv=0 dx=0 dy=0 dh=0 dv=0
EndChar

StartChar: uniFEB2
Encoding: 65202 65202 188
GlifName: uniF_E_B_2
Width: 2503
VWidth: 3804
GlyphClass: 2
Flags: HW
AnchorPoint: "Anchor-7" 646.427 -790.57 basechar 0
AnchorPoint: "Anchor-10" 1697.94 1031.52 basechar 0
LayerCount: 2
Fore
SplineSet
1920 1 m 16
 1802 2 1716 53 1660 155 c 1
 1584 52 1505 -1 1421 -1 c 0
 1346 -1 1294 30 1263 61 c 1
 1269 21 1271 -18 1271 -55 c 0
 1271 -407 995 -599 653 -599 c 0
 291 -599 110 -460 110 -181 c 0
 110 -68 141 60 204 202 c 1
 261 178 l 1
 227 61 210 -26 210 -94 c 0
 210 -299 360 -401 659 -401 c 0
 875 -401 1088 -319 1181 -187 c 1
 1177 -93 1118 72 1010 270 c 1
 1094 404 l 2
 1110 429 1124 430 1137 405 c 0
 1171 339 1195 294 1210 269 c 16
 1237 224 1307 201 1423 201 c 0
 1546 201 1616 256 1636 374 c 2
 1654 478 l 1
 1738 466 l 1
 1728 387 l 2
 1713 259 1782 202 1927 201 c 0
 2062 201 2131 267 2135 398 c 2
 2138 492 l 1
 2218 492 l 1
 2223 401 l 2
 2230 267 2296 200 2482 200 c 2
 2509 200 l 2
 2535 200 2538 168 2538 103 c 6
 2538 96 l 6
 2538 33 2535 1 2509 1 c 2
 2482 1 l 2
 2313 1 2229 52 2190 154 c 1
 2128 52 2045 1 1920 1 c 16
EndSplineSet
EndChar

StartChar: uniFEB3
Encoding: 65203 65203 189
GlifName: uniF_E_B_3
Width: 1602
VWidth: 3804
GlyphClass: 2
Flags: HW
AnchorPoint: "Anchor-10" 931.855 1043.01 basechar 0
AnchorPoint: "Anchor-7" 802.234 -248.015 basechar 0
LayerCount: 2
Fore
SplineSet
-5 199 m 2
 69 199 l 2
 273 199 365 249 383 350 c 2
 402 454 l 1
 482 442 l 1
 470 364 l 2
 468 353 468 342 468 332 c 0
 468 243 534 199 667 199 c 0
 806 199 885 257 905 372 c 2
 923 476 l 1
 1007 464 l 1
 997 385 l 2
 996 374 995 363 995 353 c 0
 995 251 1063 200 1198 200 c 0
 1300.27527764 200 1373 221.912962112 1373 291 c 0
 1373 341.717533237 1325.17382812 459.022460938 1296 524 c 1
 1378 670 l 2
 1390 691 1400 694 1409 677 c 0
 1472 557 1492 448 1492 325 c 0
 1492 162.146484375 1342.22819258 0 1190 -0 c 0
 1072 0 984 50 929 152 c 1
 855 51 764 0 658 0 c 0
 527 0 439 51 394 152 c 1
 334 50 239 0 69 0 c 2
 -5 0 l 2
 -48 0 -50 32 -50 94 c 2
 -50 104 l 2
 -50 167 -47 199 -5 199 c 2
EndSplineSet
EndChar

StartChar: uniFEB4
Encoding: 65204 65204 190
GlifName: uniF_E_B_4
Width: 1774
VWidth: 3804
GlyphClass: 2
Flags: HW
AnchorPoint: "Anchor-7" 812.234 -219.803 basechar 0
AnchorPoint: "Anchor-10" 931.855 1039.01 basechar 0
LayerCount: 2
Fore
SplineSet
-5 199 m 2
 69 199 l 2
 273 199 365 249 383 350 c 2
 402 454 l 1
 482 442 l 1
 470 364 l 2
 468 353 468 342 468 332 c 0
 468 243 534 199 667 199 c 0
 806 199 885 257 905 372 c 2
 923 476 l 1
 1007 464 l 1
 997 385 l 2
 996 374 995 363 995 353 c 0
 995 251 1063 200 1198 200 c 0
 1332 200 1402 266 1406 397 c 2
 1409 491 l 1
 1489 491 l 1
 1494 400 l 2
 1501 266 1567 199 1753 199 c 2
 1780 199 l 2
 1806 199 1809 167 1809 102 c 6
 1809 95 l 6
 1809 32 1806 0 1780 0 c 2
 1753 0 l 2
 1584 0 1500 51 1461 153 c 1
 1399 51 1315 0 1190 0 c 16
 1072 0 984 50 929 152 c 1
 855 51 764 0 658 0 c 0
 527 0 439 51 394 152 c 1
 334 50 239 0 69 0 c 2
 -5 0 l 2
 -48 0 -50 32 -50 94 c 2
 -50 104 l 2
 -50 167 -47 199 -5 199 c 2
EndSplineSet
EndChar

StartChar: uniFEBA
Encoding: 65210 65210 196
GlifName: uniF_E_B_A_
Width: 2647
VWidth: 3805
GlyphClass: 2
Flags: HW
AnchorPoint: "Anchor-7" 646.427 -790.57 basechar 0
AnchorPoint: "Anchor-10" 2047.94 1235.14 basechar 0
LayerCount: 2
Fore
SplineSet
2208 89 m 1
 2036 20 1812 0 1618 0 c 2
 1520 0 l 2
 1399 0 1313 21 1263 61 c 1
 1269 21 1271 -18 1271 -55 c 0
 1271 -407 995 -599 653 -599 c 0
 291 -599 110 -460 110 -181 c 0
 110 -68 141 60 204 202 c 1
 261 178 l 1
 227 61 210 -26 210 -94 c 0
 210 -299 360 -401 659 -401 c 0
 875 -401 1088 -319 1181 -187 c 1
 1177 -93 1118 72 1010 270 c 1
 1094 404 l 2
 1110 429 1124 430 1137 405 c 0
 1171 339 1195 294 1210 269 c 24
 1235 226 1307 205 1423 201 c 1
 1633 483 1906 749 2130 749 c 0
 2348 749 2459 597 2462 428 c 0
 2462 332 2431 258 2375 199 c 1
 2654 199 l 2
 2680 199 2682 167 2682 102 c 6
 2682 95 l 6
 2682 32 2680 0 2654 0 c 2
 2545 0 l 2
 2407 0 2274 41 2208 89 c 1
1533 201 m 1
 1625 201 l 2
 2091 201 2340 236 2340 353 c 0
 2340 462 2230 550 2080 550 c 0
 1863 550 1675 353 1533 201 c 1
EndSplineSet
EndChar

StartChar: uniFEBB
Encoding: 65211 65211 197
GlifName: uniF_E_B_B_
Width: 1840
VWidth: 3805
GlyphClass: 2
Flags: HW
AnchorPoint: "Anchor-10" 1286.92 1258.35 basechar 0
AnchorPoint: "Anchor-7" 786.645 -230.314 basechar 0
LayerCount: 2
Fore
SplineSet
-5 199 m 6
 57 199 l 2
 256 199 338 266 342 398 c 2
 345 489 l 1
 426 489 l 1
 431 398 l 2
 437 277 524 212 693 201 c 1
 903 483 1176 749 1400 749 c 0
 1618 749 1730 597 1730 428 c 0
 1730 72 1254 0 888 0 c 2
 790 0 l 2
 594 0 462 51 390 152 c 1
 324 51 226 0 57 0 c 2
 -5 0 l 6
 -48 0 -50 32 -50 94 c 6
 -50 104 l 6
 -50 167 -47 199 -5 199 c 6
803 201 m 1
 895 201 l 2
 1361 201 1610 236 1610 353 c 0
 1610 462 1500 550 1350 550 c 0
 1133 550 945 353 803 201 c 1
EndSplineSet
EndChar

StartChar: uniFEBC
Encoding: 65212 65212 198
GlifName: uniF_E_B_C_
Width: 1919
VWidth: 3805
GlyphClass: 2
Flags: HW
AnchorPoint: "Anchor-10" 1286.92 1258.35 basechar 0
AnchorPoint: "Anchor-7" 783.645 -245.314 basechar 0
LayerCount: 2
Fore
SplineSet
-5 199 m 2
 37 199 l 2
 236 199 338 266 342 398 c 2
 345 489 l 1
 426 489 l 1
 431 398 l 2
 437 277 524 212 693 201 c 1
 903 483 1176 749 1400 749 c 0
 1618 749 1729 597 1732 428 c 0
 1732 332 1701 258 1645 199 c 1
 1924 199 l 2
 1950 199 1954 167 1954 102 c 6
 1954 95 l 6
 1954 32 1950 0 1924 0 c 2
 1815 0 l 2
 1677 0 1544 41 1478 89 c 1
 1306 20 1082 0 888 0 c 2
 790 0 l 2
 594 0 462 51 390 152 c 1
 324 51 206 0 37 0 c 2
 -5 0 l 2
 -48 0 -50 32 -50 94 c 2
 -50 104 l 2
 -50 167 -47 199 -5 199 c 2
803 201 m 1
 895 201 l 2
 1361 201 1610 236 1610 353 c 0
 1610 462 1500 550 1350 550 c 0
 1133 550 945 353 803 201 c 1
EndSplineSet
EndChar

StartChar: uniFEC2
Encoding: 65218 65218 204
GlifName: uniF_E_C_2
Width: 1681
VWidth: 3805
GlyphClass: 2
Flags: HW
AnchorPoint: "Anchor-7" 745.854 -221.413 basechar 0
AnchorPoint: "Anchor-10" 568.377 1634.21 basechar 0
LayerCount: 2
Fore
SplineSet
653 415 m 1
 845 638 1016 749 1166 749 c 0
 1384 749 1495 597 1495 428 c 0
 1495 332 1464 258 1408 199 c 1
 1688 199 l 2
 1714 199 1716 167 1716 102 c 2
 1716 95 l 2
 1716 32 1714 0 1688 0 c 2
 1579 0 l 2
 1441 0 1307 41 1241 89 c 1
 1077 20 857 0 654 0 c 2
 395 0 l 2
 282 0 219 54 176 93 c 2
 103 160 l 2
 82 179 98 199 125 199 c 2
 458 201 l 1
 486 236 513 271 542 306 c 1
 534 904 492 1324 478 1390 c 1
 591 1512 l 2
 618 1541 635 1548 636 1492 c 2
 653 415 l 1
568 201 m 1
 661 201 l 2
 1127 201 1375 236 1375 353 c 0
 1375 462 1266 550 1116 550 c 0
 899 550 710 353 568 201 c 1
EndSplineSet
EndChar

StartChar: uniFEC3
Encoding: 65219 65219 205
GlifName: uniF_E_C_3
Width: 1314
VWidth: 3805
GlyphClass: 2
Flags: HW
AnchorPoint: "Anchor-10" 268.146 1637.21 basechar 0
AnchorPoint: "Anchor-7" 480.623 -229.625 basechar 0
LayerCount: 2
Fore
SplineSet
-5 199 m 6
 167 201 l 1
 195 236 224 271 251 306 c 1
 243 904 201.342773438 1324.15429688 187 1390 c 1
 300 1512 l 2
 326.924804688 1541.06933594 344 1548 345 1492 c 2
 362 415 l 1
 556 638 725 749 875 749 c 0
 1093 749 1204 597 1204 428 c 0
 1204 72 752 0 363 0 c 2
 -5 0 l 6
 -48 0 -50 32 -50 94 c 6
 -50 104 l 6
 -50 167 -47 199 -5 199 c 6
277 201 m 1
 370 201 l 2
 836 201 1084 236 1084 353 c 0
 1084 462 975 550 825 550 c 0
 608 550 419 353 277 201 c 1
EndSplineSet
EndChar

StartChar: uniFEC4
Encoding: 65220 65220 206
GlifName: uniF_E_C_4
Width: 1390
VWidth: 3805
GlyphClass: 2
Flags: HW
AnchorPoint: "Anchor-7" 480.623 -229.625 basechar 0
AnchorPoint: "Anchor-10" 268.146 1637.21 basechar 0
LayerCount: 2
Fore
SplineSet
-5 199 m 2
 167 201 l 1
 195 236 222 271 251 306 c 1
 243 904 201 1324 187 1390 c 1
 300 1512 l 2
 327 1541 344 1548 345 1492 c 2
 362 415 l 1
 554 638 725 749 875 749 c 4
 1093 749 1204 597 1204 428 c 4
 1204 332 1173 259 1117 200 c 5
 1397 199 l 6
 1423 199 1425 168 1425 103 c 6
 1425 95 l 6
 1425 32 1423 0 1397 0 c 6
 1288 0 l 6
 1150 0 1016 41 950 89 c 5
 786 20 566 1 363 0 c 2
 -5 0 l 2
 -48 0 -50 32 -50 94 c 2
 -50 104 l 2
 -50 167 -47 198 -5 199 c 2
277 201 m 1
 370 201 l 2
 836 201 1084 236 1084 353 c 4
 1084 462 975 550 825 550 c 4
 608 550 419 353 277 201 c 1
EndSplineSet
EndChar

StartChar: uniFECA
Encoding: 65226 65226 212
GlifName: uniF_E_C_A_
Width: 1333
VWidth: 3798
GlyphClass: 2
Flags: HW
AnchorPoint: "Anchor-7" 654.792 -826.821 basechar 0
AnchorPoint: "Anchor-10" 711.062 1126.07 basechar 0
LayerCount: 2
Fore
SplineSet
749 783 m 0
 945 783 1032 738 1032 636 c 0
 1032 560 981 479 830 421 c 1
 869 264 1013 199 1309 199 c 2
 1338 199 l 2
 1364 199 1368 167 1368 102 c 6
 1368 95 l 6
 1368 32 1364 0 1338 0 c 2
 1309 0 l 2
 974 0 800 132 747 397 c 1
 442 331 204 93 204 -150 c 0
 204 -391 496 -455 764 -455 c 0
 882 -455 1045 -440 1194 -422 c 1
 1196 -425 1194 -433 1188 -446 c 0
 1124 -581 981 -636 753 -636 c 0
 355 -636 110 -494 110 -157 c 0
 110 203 388 437 673 523 c 1
 647 588 541 621 354 622 c 1
 354 718 l 1
 421 761 553 783 749 783 c 0
EndSplineSet
EndChar

StartChar: uniFECB
Encoding: 65227 65227 213
GlifName: uniF_E_C_B_
Width: 1128
VWidth: 3798
GlyphClass: 2
Flags: HW
AnchorPoint: "Anchor-10" 560.49 1193.27 basechar 0
AnchorPoint: "Anchor-7" 496.566 -245.979 basechar 0
LayerCount: 2
Fore
SplineSet
-5 199 m 6
 315 199 l 1
 236 252 207 334 207 413 c 0
 207 657 391 851 598 851 c 0
 736 851 840 787 913 639 c 1
 878 596 l 1
 796 635 716 655 639 655 c 0
 486 655 309 539 309 452 c 0
 309 413 349 367 424 312 c 0
 486 267 513 247 527 247 c 0
 560 247 663 266 837 303 c 2
 981 334 l 2
 1017 342 1029 335 1018 313 c 2
 930 136 l 1
 647 46 374 0 67 0 c 2
 -5 0 l 6
 -48 0 -50 32 -50 94 c 6
 -50 104 l 6
 -50 167 -47 199 -5 199 c 6
EndSplineSet
EndChar

StartChar: uniFECC
Encoding: 65228 65228 214
GlifName: uniF_E_C_C_
Width: 1059
VWidth: 3801
GlyphClass: 2
Flags: HW
AnchorPoint: "Anchor-7" 563.281 -237.563 basechar 0
AnchorPoint: "Anchor-10" 553.643 1082.02 basechar 0
LayerCount: 2
Fore
SplineSet
-5 199 m 2
 136 199 l 2
 374 199 494 209 554 264 c 1
 521 388 374 447 224 465 c 1
 224 569 l 1
 335 609 449 629 606 629 c 0
 753.908203125 629 870.016601562 583.05859375 870.016601562 490.40234375 c 0
 870.016601562 441.650390625 824.764648438 369.850585938 712 265 c 1
 770 201 869 199 1004 199 c 2
 1064 199 l 2
 1090 199 1094 167 1094 102 c 6
 1094 95 l 6
 1094 32 1090 0 1064 0 c 2
 1000 0 l 2
 829 0 724 39 627 155 c 1
 497 39 308 0 121 0 c 2
 -5 0 l 2
 -48 0 -50 32 -50 94 c 2
 -50 104 l 2
 -50 167 -47 199 -5 199 c 2
EndSplineSet
EndChar

StartChar: uniFEDA
Encoding: 65242 65242 228
GlifName: uniF_E_D_A_
Width: 1967
VWidth: 3764
GlyphClass: 2
Flags: HW
AnchorPoint: "Anchor-7" 876.157 -267.146 basechar 0
AnchorPoint: "Anchor-10" 959.059 1412.01 basechar 0
LayerCount: 2
Fore
SplineSet
1185 745 m 0
 1185 598 1062 526 917 526 c 0
 832 526 755 538 686 561 c 1
 700 702 l 1
 770 677 843 665 919 665 c 0
 1025 665 1098 688 1098 743 c 0
 1098 774 1053 799 960 819 c 0
 846 843 789 910 789 1019 c 0
 789 1178 943 1232 1111 1252 c 0
 1117 1253 1122 1253 1127 1253 c 0
 1147 1253 1157 1247 1157 1233 c 0
 1157 1229 1156 1224 1154 1218 c 2
 1117 1112 l 1
 951 1096 866 1063 866 1009 c 0
 866 977 918 954 1020 936 c 0
 1129 917 1185 854 1185 745 c 0
1655 202 m 1
 1536 -25 1264 -57 831 -57 c 0
 346 -57 100 66 100 324 c 0
 100 423 135 544 204 647 c 1
 263 624 l 1
 227 532 208 461 208 398 c 0
 208 236 419 141 835 141 c 0
 1293 141 1611 181 1611 424 c 0
 1611 455 1609 509 1607 589 c 0
 1591 1015 1584 1271 1566 1390 c 1
 1678 1507 l 2
 1690.24609375 1518.74414062 1697 1526 1703 1526 c 0
 1711 1526 1714 1516 1714 1495 c 2
 1724 585 l 2
 1727 317 1762 199 1939 199 c 2
 1973 199 l 2
 1999 199 2002 167 2002 102 c 6
 2002 95 l 6
 2002 32 1999 0 1973 0 c 2
 1939 0 l 2
 1794 0 1714 57 1655 202 c 1
EndSplineSet
EndChar

StartChar: uniFEDB
Encoding: 65243 65243 229
GlifName: uniF_E_D_B_
Width: 957
VWidth: 3805
GlyphClass: 2
Flags: HW
AnchorPoint: "Anchor-10" 203.184 1443.47 basechar 0
AnchorPoint: "Anchor-7" 344.687 -250.871 basechar 0
LayerCount: 2
Fore
SplineSet
-5 199 m 6
 138 199 l 2
 345 199 610 239 610 383 c 0
 610 500 294 791 51 977 c 0
 32 992 26 1011 26 1026 c 0
 26 1037 44 1084 66 1156 c 0
 69 1168 75 1176 83 1179 c 2
 879 1515 l 2
 893 1521 899 1517 897 1504 c 2
 871 1354 l 1
 191 1069 l 1
 534 817 702 567 702 403 c 0
 702 165 523 0 138 0 c 2
 -5 0 l 6
 -48 0 -50 32 -50 94 c 6
 -50 104 l 6
 -50 167 -47 199 -5 199 c 6
EndSplineSet
EndChar

StartChar: uniFEDC
Encoding: 65244 65244 230
GlifName: uniF_E_D_C_
Width: 1251
VWidth: 3805
GlyphClass: 2
Flags: HW
AnchorPoint: "Anchor-10" 203.184 1443.47 basechar 0
AnchorPoint: "Anchor-7" 344.687 -250.871 basechar 0
LayerCount: 2
Fore
SplineSet
-5 199 m 2
 138 199 l 2
 345 199 610 239 610 383 c 0
 610 500 211 814 51 977 c 0
 34 994 26 1011 26 1026 c 0
 26 1036.42773438 43.9736328125 1084.4140625 66 1156 c 0
 69 1168 75 1176 83 1179 c 2
 879 1515 l 2
 893 1521 899 1517 897 1504 c 2
 871 1354 l 1
 191 1069 l 1
 418 857 600 671 755 492 c 0
 940.249023438 278.068359375 1086 213 1233 201 c 2
 1257 199 l 2
 1283 197 1286 167 1286 102 c 6
 1286 95 l 6
 1286 32 1283 0 1257 0 c 2
 1234 0 l 2
 1029 0 851 118 703 353 c 1
 657 118 481 0 138 0 c 2
 -5 0 l 2
 -48 0 -50 32 -50 94 c 2
 -50 104 l 2
 -50 167 -47 199 -5 199 c 2
EndSplineSet
EndChar

StartChar: uniFEDE
Encoding: 65246 65246 232
GlifName: uniF_E_D_E_
Width: 1475
VWidth: 3805
GlyphClass: 2
Flags: HW
AnchorPoint: "Anchor-10" 596.527 1034.82 basechar 0
AnchorPoint: "Anchor-7" 646.427 -790.57 basechar 0
LayerCount: 2
Fore
SplineSet
1061 1389 m 1
 1174 1511 l 2
 1201 1540 1218.46484375 1547.00488281 1219 1491 c 2
 1228 386 l 2
 1229.01809835 261.000147407 1294 199 1457 199 c 2
 1480 199 l 2
 1506 199 1510 167 1510 102 c 6
 1510 95 l 6
 1510 32 1506 0 1480 0 c 2
 1457 0 l 2
 1345 0 1265 35 1235 104 c 1
 1238 -53 l 2
 1238 -59 1239 -65 1239 -71 c 0
 1239 -415 973 -599 623 -599 c 0
 281 -599 110 -460 110 -181 c 0
 110 -39 154 88 204 202 c 1
 261 178 l 1
 227 61 210 -26 210 -94 c 0
 210 -299 350 -401 629 -401 c 0
 873 -401 1043 -316 1139 -189 c 1
 1105 752 1086 1261 1061 1389 c 1
EndSplineSet
EndChar

StartChar: uniFEDF
Encoding: 65247 65247 233
GlifName: uniF_E_D_F_
Width: 569
VWidth: 3764
GlyphClass: 2
Flags: HW
AnchorPoint: "Anchor-10" 283.792 1638.77 basechar 0
AnchorPoint: "Anchor-7" 190.901 -216.037 basechar 0
LayerCount: 2
Fore
SplineSet
-5 199 m 6
 66 199 l 2
 255 199 288 227 288 376 c 0
 288 545.595501871 250.2265625 1242.86816406 221 1389 c 1
 334 1511 l 2
 361 1540 378.46484375 1547.00488281 379 1491 c 2
 405 558 l 2
 406.253822181 513.007073287 409 461 409 421 c 0
 409 152 345 0 66 0 c 2
 -5 0 l 6
 -48 0 -50 32 -50 94 c 6
 -50 104 l 6
 -50 167 -47 199 -5 199 c 6
EndSplineSet
EndChar

StartChar: uniFEE0
Encoding: 65248 65248 234
GlifName: uniF_E_E_0
Width: 646
VWidth: 3764
GlyphClass: 2
Flags: HW
AnchorPoint: "Anchor-7" 251.019 -201.037 basechar 0
AnchorPoint: "Anchor-10" 304.953 1629.44 basechar 0
LayerCount: 2
Fore
SplineSet
-5 199 m 2
 66 199 l 2
 221 199 298 273 298 421 c 0
 298 654.151962976 260.150390625 1270.21582031 236 1390 c 1
 349 1512 l 2
 377 1540 393.10779166 1547.99919407 394 1492 c 2
 411 425 l 2
 413.389525439 275.022138643 459 199 610 199 c 2
 652 199 l 2
 678 199 681 167 681 102 c 6
 681 95 l 6
 681 32 678 0 652 0 c 2
 610 0 l 2
 476 0 409 50 349 150 c 1
 274 50 180 0 66 0 c 2
 -5 0 l 2
 -48 0 -50 32 -50 94 c 2
 -50 104 l 2
 -50 167 -47 199 -5 199 c 2
EndSplineSet
EndChar

StartChar: uniFEE2
Encoding: 65250 65250 236
GlifName: uniF_E_E_2
Width: 1235
VWidth: 3842
GlyphClass: 2
Flags: HW
AnchorPoint: "Anchor-10" 651.47 1032.19 basechar 0
AnchorPoint: "Anchor-7" 211.445 -867.926 basechar 0
LayerCount: 2
Fore
SplineSet
763 -247 m 0
 567 -247 513 -70 513 160 c 0
 513 213 514 244 516 255 c 1
 378 216 286 156 240 75 c 1
 255 -513 l 2
 255 -515 255 -518 255 -520 c 0
 255 -607 218 -693 143 -776 c 0
 133 -787 128 -782 127 -760 c 2
 112 -274 l 2
 110 -221 110 -173 110 -129 c 0
 110 95 125 168 245 291 c 0
 327 374 423 420 532 430 c 1
 547 498 559 540 575 572 c 0
 583 587 592 588 604 577 c 2
 867 378 l 2
 1063.50683594 229.3125 1133 199 1227 199 c 2
 1240 199 l 2
 1266 199 1270 167 1270 102 c 6
 1270 95 l 6
 1270 32 1266 0 1240 0 c 2
 1228 0 l 2
 1141 0 1114 12 1020 65 c 1
 985 -136 893 -247 763 -247 c 0
765 -61 m 0
 830 -61 909 -17 909 74 c 0
 909 113 892.620117188 153.372070312 851 183 c 0
 792 225 699 282 624 337 c 1
 619 287 617 230 617 165 c 0
 617 75 617 -61 765 -61 c 0
EndSplineSet
EndChar

StartChar: uniFEE3
Encoding: 65251 65251 237
GlifName: uniF_E_E_3
Width: 1031
VWidth: 3808
GlyphClass: 2
Flags: HW
AnchorPoint: "Anchor-10" 581.194 1037.38 basechar 0
AnchorPoint: "Anchor-7" 517.225 -257.984 basechar 0
LayerCount: 2
Fore
SplineSet
-6 199 m 6
 31.5380859375 199.001953125 l 2
 164 199 257.688476562 227.272460938 313.994140625 323.8125 c 0
 390.235351562 452.890625 499.498046875 661.015625 652.2734375 661.015625 c 0
 794.482421875 661.015625 921 501.947265625 921 294 c 0
 921 109.791015625 827.313476562 1.9697265625 680.5234375 1.9697265625 c 0
 574.584960938 1.9697265625 447.689453125 75.150390625 338.315429688 146.870117188 c 1
 272.11328125 35.623046875 167 0 23.5537109375 0 c 2
 -6 0 l 6
 -49 0 -51 32 -51 94 c 6
 -51 104 l 6
 -51 167 -48 199 -6 199 c 6
728.301757812 170.337890625 m 0
 781.4453125 170.337890625 825.3515625 206.181640625 825.3515625 260.709960938 c 0
 825.3515625 328.0625 726.00390625 480.89453125 627.142578125 480.89453125 c 0
 555.36328125 480.89453125 482.94140625 400.865234375 434.260742188 312.079101562 c 1
 562.846679688 217.584960938 660.860351562 170.337890625 728.301757812 170.337890625 c 0
EndSplineSet
EndChar

StartChar: uniFEE4
Encoding: 65252 65252 238
GlifName: uniF_E_E_4
Width: 1123
VWidth: 3808
GlyphClass: 2
Flags: HW
AnchorPoint: "Anchor-10" 581.194 986.32 basechar 0
AnchorPoint: "Anchor-7" 492.041 -296.178 basechar 0
LayerCount: 2
Fore
SplineSet
-5 199 m 2
 42 199 l 2
 190 199 262 207 307 278 c 0
 395 416 480 582 603 582 c 0
 745 582 837 410 915 285 c 0
 951 226 984 199 1107 199 c 2
 1128 199 l 2
 1154 199 1158 167 1158 102 c 6
 1158 95 l 6
 1158 32 1154 0 1128 0 c 2
 1108 0 l 2
 1027 0 965 34 882 100 c 1
 832 8 773 -68 654 -68 c 0
 563 -68 468 -17 317 76 c 1
 236 25 146 0 45 0 c 2
 -5 0 l 2
 -48 0 -50 32 -50 94 c 2
 -50 104 l 2
 -50 167 -47 199 -5 199 c 2
701 102 m 0
 753 102 798 133 798 187 c 0
 798 241 690 402 597 402 c 0
 539 402 454 325 408 234 c 1
 536 146 634 102 701 102 c 0
EndSplineSet
EndChar

StartChar: uniFEEA
Encoding: 65258 65258 244
GlifName: uniF_E_E_A_
Width: 1039
VWidth: 3791
GlyphClass: 2
Flags: HW
AnchorPoint: "Anchor-10" 610.972 1274.12 basechar 0
AnchorPoint: "Anchor-7" 443.352 -215.97 basechar 0
LayerCount: 2
Fore
SplineSet
1020 199 m 2
 1046 199 l 2
 1072 199 1074 167 1074 102 c 2
 1074 95 l 2
 1074 32 1072 0 1046 0 c 2
 1020 0 l 2
 864 0 754 80 699 241 c 1
 549 153 l 1
 352 154 124 175 113 267 c 0
 111 286 110 305 110 323 c 0
 110 570 287 660 570 796 c 1
 537 946 l 1
 624 1031 l 2
 640 1048 651 1044 656 1020 c 2
 782 394 l 2
 808 264 887 199 1020 199 c 2
532 345 m 0
 593 345 643 346 670 347 c 1
 602 655 l 1
 442 606 237 507 237 426 c 0
 237 362 368 345 532 345 c 0
EndSplineSet
EndChar

StartChar: uniFEEB
Encoding: 65259 65259 245
GlifName: uniF_E_E_B_
Width: 1221
VWidth: 3798
GlyphClass: 2
Flags: HW
AnchorPoint: "Anchor-10" 529.266 1311.54 basechar 0
AnchorPoint: "Anchor-7" 526.556 -213.307 basechar 0
LayerCount: 2
Fore
SplineSet
-5 199 m 6
 142 199.001953125 l 2
 213 199 320.760742188 199.186523438 359.973632812 206.001953125 c 1
 287.940429688 237.90234375 188.837890625 299.263671875 188.837890625 430.780273438 c 0
 188.837890625 585.072265625 268.803710938 714.063476562 396.659179688 787.571289062 c 1
 291 825 l 1
 352.48046875 1004.95800781 l 1
 709.612304688 841.254882812 l 2
 982.616210938 716.114257812 1110.22851562 576.546875 1110.22851562 407.845703125 c 0
 1110.22851562 278.052734375 1033.62597656 57.3935546875 929.1484375 57.3935546875 c 0
 813.379882812 57.3935546875 659 95 528.139648438 134.411132812 c 1
 372.690429688 50.8037109375 188 0 48.685546875 0 c 2
 -5 0 l 6
 -48 0 -50 32 -50 94 c 6
 -50 104 l 6
 -50 167 -47 199 -5 199 c 6
652.465820312 280.002929688 m 1
 755.17578125 245.515625 864.634765625 214.877929688 968.842773438 214.090820312 c 1
 994.948242188 269.844726562 1012.50097656 330.485351562 1012.50097656 378.01171875 c 0
 1012.50097656 487.729027932 905.380888926 544.064692365 754 609 c 1
 754.78125 596.958007812 755.165039062 585.012695312 755.165039062 573.190429688 c 0
 755.165039062 453.298828125 715.741210938 346.100585938 652.465820312 280.002929688 c 1
529.743164062 323.53125 m 1
 599.946676784 370.358585543 654.555995712 446.861269183 654.555995712 561.20318528 c 0
 654.555995712 645.973554963 599.493164062 697.465820312 515.096679688 697.465820312 c 0
 401.1484375 697.465820312 290.423828125 597.533915422 290.423828125 477.670898438 c 0
 290.423828125 400.212340583 463.3961954 339.063706809 529.743164062 323.53125 c 1
EndSplineSet
EndChar

StartChar: uniFEEC
Encoding: 65260 65260 246
GlifName: uniF_E_E_C_
Width: 1016
VWidth: 3827
GlyphClass: 2
Flags: HW
AnchorPoint: "Anchor-7" 585.778 -775.076 basechar 0
AnchorPoint: "Anchor-10" 483.603 1154.79 basechar 0
LayerCount: 2
Fore
SplineSet
-5 199 m 2
 240 199 l 1
 251 445 397 809 493 809 c 0
 546 809 752 565 752 407 c 0
 752 156 546 20 331 -1 c 1
 356 -93 502 -242 596 -309 c 1
 646 36 660 199 988 199 c 2
 1021 199 l 2
 1047 199 1051 167 1051 102 c 6
 1051 95 l 6
 1051 32 1047 0 1021 0 c 2
 919 0 l 2
 641 0 697 -85 774 -420 c 1
 650 -532 l 1
 420 -368 283 -238 248 0 c 1
 -5 0 l 2
 -48 0 -50 32 -50 94 c 2
 -50 104 l 2
 -50 167 -47 199 -5 199 c 2
320 199 m 1
 542 204 661 250 661 356 c 0
 661 413 593 486 476 596 c 1
 371 432 339 326 320 199 c 1
EndSplineSet
EndChar

StartChar: uniFEEE
Encoding: 65262 65262 248
GlifName: uniF_E_E_E_
Width: 843
VWidth: 3833
GlyphClass: 2
Flags: HW
AnchorPoint: "Anchor-7" 351.096 -713.978 basechar 0
AnchorPoint: "Anchor-10" 410.667 1026.67 basechar 0
LayerCount: 2
Fore
SplineSet
419 645 m 0
 564 645 674 503 700 199 c 9
 849 199 l 2
 875 199 878 167 878 102 c 6
 878 95 l 6
 878 32 875 0 849 0 c 2
 690 0 l 1
 661 -223 438 -544 253 -544 c 0
 198 -544 146 -532 71 -510 c 0
 33 -499 11 -487 4 -474 c 0
 -1 -465 1 -459 13 -455 c 0
 321 -363 516 -208 597 0 c 9
 446 0 l 2
 263 0 160 64 160 235 c 0
 160 446 276 645 419 645 c 0
259 280 m 0
 259 212 331 197 449 196 c 0
 512 196 560 197 589 198 c 1
 576 329 521 451 406 451 c 0
 321 451 259 375 259 280 c 0
EndSplineSet
EndChar

StartChar: uniFEFB
Encoding: 65275 65275 261
GlifName: uniF_E_F_B_
Width: 1254
VWidth: 3764
GlyphClass: 3
Flags: HW
AnchorPoint: "Anchor-9" 223.848 1607.87 baselig 1
AnchorPoint: "Anchor-9" 1003.97 1638.48 baselig 0
AnchorPoint: "Anchor-6" 306.134 -262.649 baselig 1
AnchorPoint: "Anchor-6" 990.16 -214.8 baselig 0
LayerCount: 2
Fore
SplineSet
1071 1491 m 2
 1093 624 l 2
 1093.38037792 609.009652035 1094 594 1094 580 c 0
 1094 196 850 3 367 3 c 0
 346 3 327 7 312 14 c 2
 120 105 l 2
 97 116 88 128 88 136 c 0
 88 145 101 151 127 153 c 0
 331 170 544 204 709 250 c 1
 607 584 421 915 133 1245 c 1
 227 1442 l 1
 509 1058 698 671 793 282 c 1
 920 340 984 414 984 501 c 0
 984 747 920 1351 913 1389 c 1
 1026 1511 l 2
 1052.9249991 1540.06946805 1070.46484375 1547.00488281 1071 1491 c 2
EndSplineSet
LCarets2: 1 0
Ligature2: "'rlig' Required Ligatures in Arabic lookup 16 subtable" uniFEDF uniFE8E
EndChar

StartChar: uniFEFC
Encoding: 65276 65276 262
GlifName: uniF_E_F_C_
Width: 1325
VWidth: 3764
GlyphClass: 3
Flags: HW
AnchorPoint: "Anchor-9" 999.97 1638.48 baselig 0
AnchorPoint: "Anchor-6" 990.16 -214.8 baselig 0
AnchorPoint: "Anchor-6" 306.134 -262.649 baselig 1
AnchorPoint: "Anchor-9" 223.848 1607.87 baselig 1
LayerCount: 2
Fore
SplineSet
913 1389 m 1
 1026 1511 l 2
 1053 1540 1070.46484375 1547.00488281 1071 1491 c 2
 1098 420 l 2
 1101.15679044 273.003367115 1135 199 1290 199 c 2
 1330 199 l 2
 1356 199 1360 167 1360 102 c 6
 1360 95 l 6
 1360 32 1356 0 1330 0 c 2
 1291 0 l 2
 1089 0 992 145 989 434 c 1
 820 162 596 3 367 3 c 0
 346 3 327 7 312 14 c 2
 120 105 l 2
 97 116 88 128 88 136 c 0
 88 145 111 151 127 153 c 0
 371 182 537 224 688 315 c 1
 595 597 427 907 134 1246 c 1
 227 1442 l 1
 508 1063 689 674 771 358 c 1
 906 459 973 540 973 601 c 0
 973 873 925 1318 913 1389 c 1
EndSplineSet
LCarets2: 1 0
Ligature2: "'rlig' Required Ligatures in Arabic lookup 16 subtable" uniFEE0 uniFE8E
EndChar

StartChar: arabic_dot
Encoding: 65536 -1 263
GlifName: arabic_dot
Width: 236
VWidth: 3294
GlyphClass: 2
Flags: HW
LayerCount: 2
Fore
SplineSet
117.973621023 268.680897102 m 1
 257.336194117 129.318324008 l 1
 117.973621023 -10.0470373046 l 1
 -21.3898814771 129.318324008 l 1
 117.973621023 268.680897102 l 1
EndSplineSet
EndChar

StartChar: arabic_2dots
Encoding: 65537 -1 264
GlifName: arabic_2dots
Width: 622
GlyphClass: 2
Flags: HW
LayerCount: 2
Fore
SplineSet
460 257 m 5
 592 125 l 5
 460 -7 l 5
 328 125 l 5
 460 257 l 5
163 257 m 5
 295 125 l 5
 163 -7 l 5
 31 125 l 5
 163 257 l 5
EndSplineSet
EndChar

StartChar: arabic_3dots
Encoding: 65538 -1 265
GlifName: arabic_3dots
Width: 600
VWidth: 3294
GlyphClass: 2
Flags: HW
LayerCount: 2
Fore
SplineSet
300.000976562 473.534179688 m 5
 423.473632812 350.05859375 l 5
 300.000976562 226.58203125 l 5
 176.526367188 350.05859375 l 5
 300.000976562 473.534179688 l 5
453.01953125 222.672851562 m 1
 576.495117188 99.1962890625 l 1
 453.01953125 -24.279296875 l 1
 329.544921875 99.1962890625 l 1
 453.01953125 222.672851562 l 1
146.979492188 222.672851562 m 1
 270.455078125 99.1962890625 l 1
 146.979492188 -24.279296875 l 1
 23.5048828125 99.1962890625 l 1
 146.979492188 222.672851562 l 1
EndSplineSet
EndChar

StartChar: arabic_3dots_a
Encoding: 65539 -1 266
GlifName: arabic_3dots_a
Width: 646
VWidth: 3294
GlyphClass: 2
Flags: HW
LayerCount: 2
Fore
SplineSet
324 -235 m 5
 201 -112 l 5
 324 12 l 5
 447 -112 l 5
 324 -235 l 5
477 16 m 1
 354 139 l 1
 477 263 l 1
 600 139 l 1
 477 16 l 1
171 16 m 1
 48 139 l 1
 171 263 l 1
 294 139 l 1
 171 16 l 1
EndSplineSet
EndChar

StartChar: uni066E.fina
Encoding: 65540 -1 267
GlifName: uni066E_.fina
Width: 1968
VWidth: 3805
GlyphClass: 2
Flags: HW
AnchorPoint: "Anchor-10" 1038.94 1819.73 basechar 0
AnchorPoint: "Anchor-7" 968.624 -364.904 basechar 0
LayerCount: 2
Fore
SplineSet
218 398 m 0
 218 236 429 141 845 141 c 0
 1370 141 1636 246 1640 396 c 2
 1642 490 l 1
 1723 490 l 1
 1727 399 l 2
 1734 266 1808 199 1950 199 c 2
 1973 199 l 2
 1999 199 2003 167 2003 102 c 6
 2003 95 l 6
 2003 32 1999 0 1973 0 c 2
 1951 0 l 2
 1827 0 1739 53 1678 158 c 1
 1531 25 1208 -57 838 -57 c 0
 354 -57 110 67 110 324 c 0
 110 423 145 544 214 647 c 1
 273 624 l 1
 237 532 218 461 218 398 c 0
EndSplineSet
EndChar

StartChar: uni06A1.fina
Encoding: 65543 -1 268
GlifName: uni06A_1.fina
Width: 1976
VWidth: 3799
GlyphClass: 2
Flags: HW
AnchorPoint: "Anchor-10" 768.916 2002.79 basechar 0
AnchorPoint: "Anchor-7" 959.232 -471.314 basechar 0
LayerCount: 2
Fore
SplineSet
1530 102 m 1
 1316 -27 1108 -57 838 -57 c 0
 354 -57 110 67 110 324 c 0
 110 423 145 544 214 647 c 1
 273 624 l 1
 237 532 218 461 218 398 c 0
 218 236 429 141 845 141 c 0
 1134 141 1270 160 1399 197 c 1
 1321 271 1261 361 1261 466 c 0
 1261 650 1389 830 1544 830 c 0
 1694 830 1802 656 1802 489 c 0
 1802 384 1775 300 1692 216 c 1
 1762 202 1828 199 1948 199 c 2
 1981 199 l 2
 2007 199 2011 167 2011 102 c 6
 2011 95 l 6
 2011 32 2007 0 1981 0 c 2
 1948 0 l 2
 1815 0 1705 8 1530 102 c 1
1358 452 m 0
 1358 373 1467 290 1535 257 c 1
 1602 289 1706 380 1706 452 c 0
 1706 535 1601 631 1536 631 c 0
 1458 631 1358 540 1358 452 c 0
EndSplineSet
EndChar

StartChar: uni06A1.init
Encoding: 65544 -1 269
GlifName: uni06A_1.init
Width: 798
VWidth: 3833
GlyphClass: 2
Flags: HW
AnchorPoint: "Anchor-10" 495.194 2065.36 basechar 0
AnchorPoint: "Anchor-7" 398.773 -381.183 basechar 0
LayerCount: 2
Fore
SplineSet
-5 199 m 6
 229 200 l 2
 529 201 591 255 591 404 c 1
 521 379 458 368 381 368 c 0
 235 368 143 439 143 595 c 0
 143 827 266 999 398 999 c 0
 635 999 688 674 688 443 c 0
 688 134 550 0 204 0 c 2
 -5 0 l 6
 -48 0 -50 32 -50 94 c 6
 -50 104 l 6
 -50 167 -47 199 -5 199 c 6
235 626 m 0
 235 575 310 560 386 560 c 0
 464 560 529 574 578 599 c 1
 558 702 507 813 388 813 c 0
 297 813 235 712 235 626 c 0
EndSplineSet
EndChar

StartChar: uni06A1.medi
Encoding: 65545 -1 270
GlifName: uni06A_1.medi
Width: 965
VWidth: 3799
GlyphClass: 2
Flags: HW
AnchorPoint: "Anchor-10" 463.193 1502.44 basechar 0
AnchorPoint: "Anchor-7" 436.405 -213.618 basechar 0
LayerCount: 2
Fore
SplineSet
-5 199 m 2
 82 200 l 2
 221 202 280 203 357 214 c 1
 279 298 250 381 250 466 c 0
 250 650 378 830 533 830 c 0
 683 830 791 656 791 489 c 0
 791 384 764 300 681 216 c 1
 751 202 817 199 937 199 c 2
 970 199 l 2
 996 199 1000 167 1000 102 c 6
 1000 95 l 6
 1000 32 996 0 970 0 c 2
 937 0 l 2
 804 0 691 8 516 102 c 1
 351 18 231 0 82 0 c 2
 -5 0 l 2
 -48 0 -50 32 -50 94 c 2
 -50 104 l 2
 -50 167 -47 199 -5 199 c 2
347 452 m 0
 347 373 456 290 524 257 c 1
 591 289 695 380 695 452 c 0
 695 535 590 631 525 631 c 0
 447 631 347 540 347 452 c 0
EndSplineSet
EndChar

StartChar: uni066F.fina
Encoding: 65546 -1 271
GlifName: uni066F_.fina
Width: 1427
VWidth: 3833
GlyphClass: 2
Flags: HW
AnchorPoint: "Anchor-10" 503.98 764.946 basechar 0
AnchorPoint: "Anchor-7" 423.924 -900.824 basechar 0
LayerCount: 2
Fore
SplineSet
1179 -187 m 1
 1180 -170 1181 -143 1181 -119 c 0
 1181 -78 1180 -42 1177 0 c 9
 1026 0 l 2
 843 0 739 64 739 235 c 0
 739 446 852 646 995 646 c 0
 1140 646 1254 503 1280 199 c 9
 1433 199 l 2
 1459 199 1462 167 1462 102 c 6
 1462 95 l 6
 1462 32 1459 0 1433 0 c 2
 1276 -1 l 1
 1273 -414 994 -599 653 -599 c 0
 291 -599 110 -460 110 -181 c 0
 110 -68 141 60 204 202 c 1
 261 178 l 1
 227 61 210 -26 210 -94 c 0
 210 -299 358 -401 653 -401 c 0
 872 -401 1088 -322 1179 -187 c 1
842 280 m 0
 842 212 911 197 1029 196 c 0
 1092 196 1140 197 1169 198 c 1
 1156 329 1101 452 986 452 c 0
 901 452 842 375 842 280 c 0
EndSplineSet
EndChar

StartChar: arabic_gaf_bar
Encoding: 65550 -1 272
GlifName: arabic_gaf_bar
Width: 801
VWidth: 3184
GlyphClass: 2
Flags: HW
LayerCount: 2
Fore
SplineSet
785 2139 m 6
 766.747070312 2062.10351562 l 1
 63.1748046875 1765.74707031 l 1
 102.1328125 1865.25585938 l 1
 769.684570312 2152.03710938 l 2
 782.359425532 2157.48224645 787.666992188 2155.09667969 785 2139 c 6
EndSplineSet
EndChar

StartChar: guillemotleft
Encoding: 171 171 282
GlifName: guillemotleft
Width: 797
VWidth: 3431
Flags: HW
LayerCount: 2
Fore
SplineSet
110 486 m 132
 110 709 203 868 351 956 c 4
 360 958 366 952 373 938 c 4
 375 934 375 931 374 930 c 4
 293 796 253 645 253 478 c 132
 253 311 297 160 384 24 c 4
 387 19 385 13 378 7 c 132
 371 1 366 -2 360 -1 c 4
 219 69 110 278 110 486 c 132
425 486 m 132
 425 709 520 868 668 956 c 4
 677 958 682 952 687 938 c 4
 689 934 690 931 689 930 c 4
 609 795 569 644 569 478 c 132
 569 312 611 161 697 24 c 4
 702 19 701 13 694 7 c 132
 687 1 680 -2 674 -1 c 4
 534 69 425 279 425 486 c 132
EndSplineSet
EndChar

StartChar: guillemotright
Encoding: 187 187 283
GlifName: guillemotright
Width: 797
VWidth: 3431
Flags: HW
LayerCount: 2
Fore
SplineSet
687 486 m 132
 687 278 578 69 437 -1 c 4
 431 -2 426 1 419 7 c 132
 412 13 410 19 413 24 c 4
 500 160 544 311 544 478 c 132
 544 645 504 796 423 930 c 4
 422 931 422 934 424 938 c 4
 431 952 437 958 446 956 c 4
 594 868 687 709 687 486 c 132
372 486 m 132
 372 279 263 69 123 -1 c 4
 117 -2 110 1 103 7 c 132
 96 13 95 19 100 24 c 4
 186 161 228 312 228 478 c 132
 228 644 188 795 108 930 c 4
 107 931 108 934 110 938 c 4
 115 952 120 958 129 956 c 4
 277 868 372 709 372 486 c 132
EndSplineSet
EndChar

StartChar: NameMe.304
Encoding: 65562 -1 292
GlifName: N_ameM_e.302
Width: 647
VWidth: 3764
Flags: HW
LayerCount: 2
Fore
SplineSet
-5 199 m 2
 66 199 l 2
 221 199 298 273 298 421 c 0
 298 654.151962976 267.150390625 1020.21582031 243 1140 c 1
 356 1262 l 2
 384 1290 400.46484375 1298.00488281 401 1242 c 2
 411 425 l 2
 412 275 459 199 610 199 c 2
 652 199 l 2
 678 199 682 167 682 102 c 6
 682 95 l 6
 682 32 678 0 652 0 c 2
 610 0 l 2
 476 0 409 50 349 150 c 1
 274 50 180 0 66 0 c 2
 -5 0 l 2
 -48 0 -50 32 -50 94 c 2
 -50 104 l 2
 -50 167 -47 199 -5 199 c 2
EndSplineSet
EndChar

StartChar: NameMe.303
Encoding: 65563 -1 293
GlifName: N_ameM_e.303
Width: 554
VWidth: 3764
Flags: HW
LayerCount: 2
Fore
SplineSet
-5 199 m 6
 66 199 l 2
 255 199 288 227 288 376 c 0
 288 545.595501871 250.2265625 1192.86816406 221 1339 c 1
 334 1461 l 2
 361 1490 378.46484375 1497.00488281 379 1441 c 2
 405 558 l 2
 406.253822181 513.007073287 409 461 409 421 c 0
 409 152 345 0 66 0 c 2
 -5 0 l 6
 -48 0 -50 32 -50 94 c 6
 -50 104 l 6
 -50 167 -47 199 -5 199 c 6
EndSplineSet
EndChar

StartChar: NameMe.306
Encoding: 65564 -1 296
GlifName: N_ameM_e.65564
Width: 538
VWidth: 3764
Flags: HW
LayerCount: 2
Fore
SplineSet
522 199 m 2
 543 199 l 2
 569 199 573 167 573 102 c 6
 573 95 l 6
 573 32 569 0 543 0 c 2
 523 0 l 2
 221.779215173 0 192.780273438 142.668945312 181 529 c 0
 171.825761562 829.866803335 162 937 128 1219 c 1
 242 1341 l 2
 269.377929688 1369.18359375 283.404296875 1367.77734375 285 1318 c 0
 295 1006 296.07038833 929.747222437 301 617 c 0
 306.049061148 296.674595978 297.096982466 199 522 199 c 2
EndSplineSet
EndChar

StartChar: NameMe.65567
Encoding: 65565 -1 297
GlifName: N_ameM_e.65565
Width: 713
VWidth: 3943
Flags: HW
LayerCount: 2
Fore
SplineSet
163 2 m 5
 200 -16 244 -26 295 -26 c 4
 403 -26 471 -6 501 29 c 4
 508 37 511 43 511 50 c 4
 511 81 437 92 371 110 c 4
 340 118 324 137 324 167 c 4
 324 178 326 191 330 204 c 4
 361 310 412 377 481 406 c 4
 504 416 529 420 554 420 c 4
 577 420 601 416 625 408 c 5
 623 384 616 348 605 301 c 5
 575 303 l 5
 556 303 l 6
 453 303 408 256 377 187 c 5
 515 156 l 6
 550 148 567 125 567 87 c 4
 567 41 554 -2 526 -38 c 4
 481 -98 403 -128 294 -128 c 4
 231 -128 174 -118 126 -98 c 5
 163 2 l 5
EndSplineSet
EndChar

StartChar: uni060D
Encoding: 1549 1549 298
Width: 828
VWidth: 4036
Flags: HW
LayerCount: 2
Fore
SplineSet
713 1426 m 5
 157 -199 l 5
 55 -168 l 1
 611 1457 l 1
 713 1426 l 5
EndSplineSet
EndChar

StartChar: NameMe.65541
Encoding: 65541 -1 299
Width: 599
VWidth: 3804
Flags: HW
AnchorPoint: "Anchor-10" 278.669 1291.79 basechar 0
AnchorPoint: "Anchor-7" 356.746 -264.901 basechar 0
LayerCount: 2
Fore
SplineSet
489 349 m 4
 489 135 359 0 92 0 c 2
 -5 0 l 2
 -48 0 -50 32 -50 94 c 2
 -50 104 l 2
 -50 167 -47 199 -5 199 c 2
 89 199 l 2
 284 199 370 218 370 285 c 4
 370 343 318 466 284 538 c 5
 365 688 l 6
 377 710 387 712 396 695 c 4
 464 567 489 471 489 349 c 4
EndSplineSet
EndChar

StartChar: NameMe.65542
Encoding: 65542 -1 300
Width: 743
VWidth: 3804
Flags: HW
AnchorPoint: "Anchor-10" 403.594 1177.75 basechar 0
AnchorPoint: "Anchor-7" 327.531 -223.18 basechar 0
LayerCount: 2
Fore
SplineSet
-5 199 m 2
 72 199 l 2
 317 199 411 265 415 396 c 2
 418 490 l 1
 498 490 l 1
 503 399 l 2
 510 266 574 199 726 199 c 2
 748 199 l 2
 774 199 778 167 778 102 c 6
 778 95 l 6
 778 32 774 0 748 0 c 2
 726 0 l 2
 602 0 524 53 463 158 c 1
 391 53 252 0 76 0 c 2
 -5 0 l 2
 -48 0 -50 32 -50 94 c 2
 -50 104 l 2
 -50 167 -47 199 -5 199 c 2
EndSplineSet
EndChar

StartChar: uniFBFD.compact
Encoding: 65575 -1 320
Width: 1483
VWidth: 3805
Flags: HW
AnchorPoint: "Anchor-7" 733.902 -802.086 basechar 0
AnchorPoint: "Anchor-10" 719.6 587.22 basechar 0
LayerCount: 2
Fore
SplineSet
699 -625 m 0
 307 -625 110 -494 110 -231 c 0
 110 -118 141 10 204 152 c 1
 261 128 l 1
 227 11 210 -79 210 -143 c 0
 210 -336 376 -433 706 -433 c 0
 1140.96582031 -433 1315 -322.727539062 1315 -275 c 4
 1315 -259 1281 -261 1266 -259 c 6
 1052 -237 l 6
 958 -228 920 -186 920 -111 c 4
 920 -29.7939453125 993.6015625 199 1209 199 c 6
 1488 199 l 6
 1514 199 1527 167 1527 102 c 6
 1527 95 l 6
 1527 32 1514 0 1488 0 c 6
 1469 0 l 6
 1388 0 1155.65917969 33 1094 33 c 4
 1062 33 1032 -1 1017 -93 c 5
 1286 -121 l 6
 1365 -130 1411 -161 1411 -235 c 4
 1411 -383.3828125 1192.32714844 -625 699 -625 c 0
EndSplineSet
EndChar

StartChar: uniFD3E
Encoding: 64830 64830 325
Width: 1557
VWidth: 0
Flags: HW
LayerCount: 2
Fore
SplineSet
854.426757812 661.603515625 m 128
 854.426757812 682.3203125 847.079752604 700.025390625 832.385742188 714.71875 c 128
 817.692382813 729.412760417 799.987304687 736.759765625 779.270507812 736.759765625 c 128
 758.554361979 736.759765625 740.849283854 729.412760417 726.155273438 714.71875 c 128
 711.461263021 700.025390625 704.114257812 682.3203125 704.114257812 661.603515625 c 128
 704.114257812 640.88671875 711.461263021 623.181640625 726.155273438 608.48828125 c 128
 740.849283854 593.794270833 758.554361979 586.447265625 779.270507812 586.447265625 c 128
 799.987304687 586.447265625 817.692382813 593.794270833 832.385742188 608.48828125 c 128
 847.079752604 623.181640625 854.426757812 640.88671875 854.426757812 661.603515625 c 128
968.299804688 661.603515625 m 128
 968.299804688 609.440755208 949.835286459 564.895507813 912.90625 527.967773438 c 128
 875.977864583 491.038736979 831.432617187 472.57421875 779.270507812 472.57421875 c 128
 727.107747396 472.57421875 682.561848959 491.038736979 645.6328125 527.967773438 c 128
 608.705078125 564.895507813 590.241210938 609.440755208 590.241210938 661.603515625 c 128
 590.241210938 713.765625 608.705078125 758.311197917 645.6328125 795.240234375 c 128
 682.561848959 832.168619792 727.107747396 850.6328125 779.270507812 850.6328125 c 128
 831.432617187 850.6328125 875.977864583 832.168619792 912.90625 795.240234375 c 128
 949.835286459 758.311197917 968.299804688 713.765625 968.299804688 661.603515625 c 128
722.241210938 187.095703125 m 0
 777.215169271 -56.044270833 879.812174479 -233.693359375 1030.03222656 -345.8515625 c 1
 953.32845052 -210.29296875 896.019205729 -32.0732421873 858.104492188 188.807617188 c 0
 854.780273437 208.174804688 860.065429687 224.806315105 873.959960938 238.702148438 c 2
 916.122070312 280.86328125 l 2
 927.239908854 291.98046875 940.66015625 297.5390625 956.3828125 297.5390625 c 2
 1150.99023438 297.5390625 l 1
 1150.99023438 492.150390625 l 2
 1150.99023438 507.873697916 1156.54947917 521.293619791 1167.66796875 532.41015625 c 2
 1305.27734375 670.01953125 l 5
 1167.66796875 807.62890625 l 2
 1156.54947917 818.74609375 1150.99023438 832.166015625 1150.99023438 847.888671875 c 2
 1150.99023438 1042.49902344 l 1
 956.3828125 1042.49902344 l 2
 940.66015625 1042.49902344 927.239908854 1048.05761719 916.122070312 1059.17480469 c 2
 870.866210938 1104.43066406 l 2
 857.166992187 1118.13053385 851.846354166 1134.54622396 854.904296875 1153.67773438 c 0
 894.237630208 1399.76106771 957.024739583 1598.03027344 1043.265625 1748.48535156 c 1
 875.100260417 1627.74641927 764.519856771 1426.20247395 711.524414062 1143.85351562 c 0
 709.358398437 1132.31640625 704.125325521 1122.39746094 695.825195312 1114.09667969 c 2
 640.90234375 1059.17480469 l 2
 629.785807291 1048.05761719 616.365885416 1042.49902344 600.642578125 1042.49902344 c 2
 406.033203125 1042.49902344 l 1
 406.033203125 847.888671875 l 2
 406.033203125 832.166015625 400.474609375 818.74609375 389.357421875 807.62890625 c 2
 251.748046875 670.01953125 l 1
 389.357421875 532.41015625 l 2
 400.474609375 521.293619791 406.033203125 507.873697916 406.033203125 492.150390625 c 2
 406.033203125 297.5390625 l 1
 600.642578125 297.5390625 l 2
 616.365885416 297.5390625 629.785807291 291.98046875 640.90234375 280.86328125 c 2
 706.967773438 214.799804688 l 2
 714.729492187 207.037434896 719.820638021 197.802734375 722.241210938 187.095703125 c 0
614.9140625 145.809570312 m 1
 577.05859375 183.666992188 l 1
 349.09765625 183.666992188 l 2
 335.680989583 183.666992188 322.837239583 189.114583334 310.56640625 200.009765625 c 128
 298.295572917 210.903645834 292.16015625 224.434570313 292.16015625 240.602539062 c 2
 292.16015625 468.56640625 l 1
 130.966796875 629.7578125 l 2
 123.783203125 636.942057292 118.158854167 648.329752605 114.09375 663.920898438 c 128
 110.028645833 679.512695313 115.652994792 694.965820313 130.966796875 710.280273438 c 2
 292.16015625 871.473632812 l 1
 292.16015625 1099.43554688 l 2
 292.16015625 1112.85221355 297.608072917 1125.69596355 308.50390625 1137.96679688 c 128
 319.3984375 1150.23697917 332.9296875 1156.37207031 349.09765625 1156.37207031 c 2
 577.05859375 1156.37207031 l 1
 602.959960938 1182.2734375 l 1
 686.466471354 1603.19596354 892.471679688 1861.96614583 1220.97558594 1958.58398438 c 0
 1244.84798177 1967.95442709 1262.80501302 1958.61002604 1274.84667969 1930.55078125 c 0
 1281.05110677 1916.09179688 1281.18261719 1893.15494792 1275.24121094 1861.74023438 c 1
 1129.97884115 1730.31315105 1028.91992188 1497.82421875 972.064453125 1164.2734375 c 1
 979.966796875 1156.37207031 l 1
 1207.92773438 1156.37207031 l 2
 1221.34440105 1156.37207031 1234.18815105 1150.92447917 1246.45898438 1140.02929688 c 128
 1258.72916667 1129.13541667 1264.86425781 1115.60416667 1264.86425781 1099.43554688 c 2
 1264.86425781 871.473632812 l 1
 1426.05859375 710.280273438 l 6
 1433.2421875 703.094726563 1438.86653646 691.706380208 1442.93164062 676.115234375 c 132
 1446.99674479 660.524088542 1441.37239584 645.071614583 1426.05859375 629.7578125 c 6
 1264.86425781 468.56640625 l 1
 1264.86425781 240.602539062 l 2
 1264.86425781 227.185872395 1259.41666667 214.342447916 1248.52148438 202.072265625 c 128
 1237.62760417 189.802083334 1224.09635417 183.666992188 1207.92773438 183.666992188 c 2
 979.966796875 183.666992188 l 1
 975.4609375 179.16015625 l 1
 1033.56054687 -138.059895833 1132.65364583 -353.045898437 1272.74023438 -465.797851562 c 0
 1282.82161459 -473.912434895 1287.76041667 -482.954427083 1287.55664062 -492.923828125 c 0
 1287.04882813 -517.738932292 1264.85514323 -541.689778646 1220.97558594 -564.776367188 c 1
 907.43717448 -472.558919271 705.416666667 -235.696940104 614.9140625 145.809570312 c 1
EndSplineSet
EndChar

StartChar: uniFD3F
Encoding: 64831 64831 326
Width: 1557
VWidth: 0
Flags: HW
LayerCount: 2
Fore
SplineSet
702.59765625 661.603515625 m 128
 702.59765625 640.88671875 709.944661458 623.181640625 724.638671875 608.48828125 c 128
 739.332682292 593.794270833 757.038085937 586.447265625 777.754882812 586.447265625 c 128
 798.471679687 586.447265625 816.176757813 593.794270833 830.870117188 608.48828125 c 128
 845.564127604 623.181640625 852.911132812 640.88671875 852.911132812 661.603515625 c 128
 852.911132812 682.3203125 845.564127604 700.025390625 830.870117188 714.71875 c 128
 816.176757813 729.412760417 798.471679687 736.759765625 777.754882812 736.759765625 c 128
 757.038085937 736.759765625 739.332682292 729.412760417 724.638671875 714.71875 c 128
 709.944661458 700.025390625 702.59765625 682.3203125 702.59765625 661.603515625 c 128
588.724609375 661.603515625 m 128
 588.724609375 713.765625 607.188802083 758.311197917 644.1171875 795.240234375 c 128
 681.046875 832.168619792 725.592773437 850.6328125 777.754882812 850.6328125 c 128
 829.916992187 850.6328125 874.462239583 832.168619792 911.390625 795.240234375 c 128
 948.319661459 758.311197917 966.784179688 713.765625 966.784179688 661.603515625 c 128
 966.784179688 609.440755208 948.319661459 564.895507813 911.390625 527.967773438 c 128
 874.462239583 491.038736979 829.916992187 472.57421875 777.754882812 472.57421875 c 128
 725.592773437 472.57421875 681.046875 491.038736979 644.1171875 527.967773438 c 128
 607.188802083 564.895507813 588.724609375 609.440755208 588.724609375 661.603515625 c 128
834.783203125 187.095703125 m 0
 837.203776042 197.802734375 842.294921875 207.037434896 850.056640625 214.799804688 c 2
 916.122070312 280.86328125 l 2
 927.239908854 291.98046875 940.66015625 297.5390625 956.3828125 297.5390625 c 2
 1150.99023438 297.5390625 l 1
 1150.99023438 492.150390625 l 2
 1150.99023438 507.873697916 1156.54947917 521.293619791 1167.66796875 532.41015625 c 2
 1305.27734375 670.01953125 l 1
 1167.66796875 807.62890625 l 2
 1156.54947917 818.74609375 1150.99023438 832.166015625 1150.99023438 847.888671875 c 2
 1150.99023438 1042.49902344 l 1
 956.3828125 1042.49902344 l 2
 940.66015625 1042.49902344 927.239908854 1048.05761719 916.122070312 1059.17480469 c 2
 861.201171875 1114.09667969 l 2
 852.900390625 1122.39746094 847.667317708 1132.31640625 845.501953125 1143.85351562 c 0
 792.505859375 1426.20247395 681.925130208 1627.74641927 513.759765625 1748.48535156 c 1
 599.999348958 1598.03027344 662.786132813 1399.76106771 702.120117188 1153.67773438 c 0
 705.178059896 1134.54622396 699.857096354 1118.13053385 686.157226562 1104.43066406 c 2
 640.90234375 1059.17480469 l 2
 629.785807291 1048.05761719 616.365885416 1042.49902344 600.642578125 1042.49902344 c 2
 406.033203125 1042.49902344 l 1
 406.033203125 847.888671875 l 2
 406.033203125 832.166015625 400.474609375 818.74609375 389.357421875 807.62890625 c 2
 251.748046875 670.01953125 l 1
 389.357421875 532.41015625 l 2
 400.474609375 521.293619791 406.033203125 507.873697916 406.033203125 492.150390625 c 2
 406.033203125 297.5390625 l 1
 600.642578125 297.5390625 l 2
 616.365885416 297.5390625 629.785807291 291.98046875 640.90234375 280.86328125 c 2
 683.065429688 238.702148438 l 2
 696.959960937 224.806315105 702.245117187 208.174804688 698.920898438 188.807617188 c 0
 661.006184896 -32.0732421873 603.697265625 -210.29296875 526.994140625 -345.8515625 c 1
 677.212239583 -233.693359375 779.80859375 -56.044270833 834.783203125 187.095703125 c 0
942.109375 145.809570312 m 1
 851.608072917 -235.696940104 649.588216146 -472.558919271 336.049804688 -564.776367188 c 1
 292.170247396 -541.689778646 269.9765625 -517.738932292 269.46875 -492.923828125 c 0
 269.264322917 -482.954427083 274.202799479 -473.912434895 284.284179688 -465.797851562 c 0
 424.371419271 -353.045898437 523.46484375 -138.059895833 581.564453125 179.16015625 c 1
 577.05859375 183.666992188 l 1
 349.09765625 183.666992188 l 2
 332.9296875 183.666992188 319.3984375 189.802083334 308.50390625 202.072265625 c 128
 297.608072917 214.342447916 292.16015625 227.185872395 292.16015625 240.602539062 c 2
 292.16015625 468.56640625 l 1
 130.966796875 629.7578125 l 2
 115.652994792 645.071614583 110.028645833 660.524088542 114.09375 676.115234375 c 128
 118.158854167 691.706380208 123.783203125 703.094726563 130.966796875 710.280273438 c 2
 292.16015625 871.473632812 l 1
 292.16015625 1099.43554688 l 2
 292.16015625 1115.60416667 298.295572917 1129.13541667 310.56640625 1140.02929688 c 128
 322.837239583 1150.92447917 335.680989583 1156.37207031 349.09765625 1156.37207031 c 2
 577.05859375 1156.37207031 l 1
 584.9609375 1164.2734375 l 1
 528.106119792 1497.82421875 427.047200521 1730.31315105 281.784179688 1861.74023438 c 1
 275.842122396 1893.15494792 275.973632813 1916.09179688 282.178710938 1930.55078125 c 0
 294.220377605 1958.61002604 312.177408855 1967.95442709 336.049804688 1958.58398438 c 0
 664.553710937 1861.96614583 870.55859375 1603.19596354 954.064453125 1182.2734375 c 1
 979.966796875 1156.37207031 l 1
 1207.92773438 1156.37207031 l 2
 1224.09635417 1156.37207031 1237.62760417 1150.23697917 1248.52148438 1137.96679688 c 128
 1259.41666667 1125.69596355 1264.86425781 1112.85221355 1264.86425781 1099.43554688 c 2
 1264.86425781 871.473632812 l 1
 1426.05859375 710.280273438 l 2
 1441.37239584 694.965820313 1446.99674479 679.512695313 1442.93164062 663.920898438 c 128
 1438.86653646 648.329752605 1433.2421875 636.942057292 1426.05859375 629.7578125 c 2
 1264.86425781 468.56640625 l 1
 1264.86425781 240.602539062 l 2
 1264.86425781 224.434570313 1258.72916667 210.903645834 1246.45898438 200.009765625 c 128
 1234.18815105 189.114583334 1221.34440105 183.666992188 1207.92773438 183.666992188 c 2
 979.966796875 183.666992188 l 1
 942.109375 145.809570312 l 1
EndSplineSet
EndChar

StartChar: slash
Encoding: 47 47 327
Width: 868
Flags: HW
LayerCount: 2
Fore
SplineSet
778 1554 m 1
 210 -96 l 1
 89 -96 l 5
 657 1554 l 5
 778 1554 l 1
EndSplineSet
EndChar
